<svg width="14" height="14" viewBox="0 0 14 14" fill="none" xmlns="http://www.w3.org/2000/svg">
<path d="M2.86688 1.00016C2.86688 0.631973 2.5684 0.333496 2.20021 0.333496C1.83202 0.333496 1.53354 0.631973 1.53354 1.00016V3.40016C1.53354 3.76835 1.83202 4.06683 2.20021 4.06683H4.60065C4.96884 4.06683 5.26732 3.76835 5.26732 3.40016C5.26732 3.03197 4.96884 2.7335 4.60065 2.7335H3.79997C4.69174 2.06334 5.79985 1.66683 7.00065 1.66683C9.94617 1.66683 12.334 4.05464 12.334 7.00016C12.334 9.94568 9.94617 12.3335 7.00065 12.3335C4.05513 12.3335 1.66732 9.94568 1.66732 7.00016C1.66732 6.63197 1.36884 6.3335 1.00065 6.3335C0.632461 6.3335 0.333984 6.63197 0.333984 7.00016C0.333984 10.6821 3.31875 13.6668 7.00065 13.6668C10.6825 13.6668 13.6673 10.6821 13.6673 7.00016C13.6673 3.31826 10.6825 0.333496 7.00065 0.333496C5.43901 0.333496 4.00276 0.870804 2.86688 1.7696V1.00016Z" fill="#F9FAFB"/>
<path d="M7.00065 4.66683C7.00065 4.29864 6.70217 4.00016 6.33398 4.00016C5.96579 4.00016 5.66732 4.29864 5.66732 4.66683V8.00016C5.66732 8.36835 5.96579 8.66683 6.33398 8.66683H8.33398C8.70217 8.66683 9.00065 8.36835 9.00065 8.00016C9.00065 7.63197 8.70217 7.3335 8.33398 7.3335H7.00065V4.66683Z" fill="#F9FAFB"/>
</svg>
