<svg width="14" height="14" viewBox="0 0 14 14" fill="none" xmlns="http://www.w3.org/2000/svg">
<path fill-rule="evenodd" clip-rule="evenodd" d="M1.66667 6.66667C0.746192 6.66667 0 5.92047 0 5V1.66667C0 0.746192 0.746192 0 1.66667 0H5C5.92047 0 6.66667 0.746192 6.66667 1.66667V5C6.66667 5.92047 5.92048 6.66667 5 6.66667H1.66667ZM1.33333 5C1.33333 5.18409 1.48257 5.33333 1.66667 5.33333L5 5.33333C5.1841 5.33333 5.33333 5.18409 5.33333 5V1.66667C5.33333 1.48257 5.1841 1.33333 5 1.33333L1.66667 1.33333C1.48257 1.33333 1.33333 1.48257 1.33333 1.66667L1.33333 5Z" fill="#F9FAFB"/>
<path fill-rule="evenodd" clip-rule="evenodd" d="M0 12.3333C0 13.2538 0.746192 14 1.66667 14H5C5.92048 14 6.66667 13.2538 6.66667 12.3333V9C6.66667 8.07953 5.92047 7.33333 5 7.33333H1.66667C0.746192 7.33333 0 8.07953 0 9V12.3333ZM1.66667 12.6667C1.48257 12.6667 1.33333 12.5174 1.33333 12.3333L1.33333 9C1.33333 8.81591 1.48257 8.66667 1.66667 8.66667H5C5.1841 8.66667 5.33333 8.81591 5.33333 9V12.3333C5.33333 12.5174 5.1841 12.6667 5 12.6667H1.66667Z" fill="#F9FAFB"/>
<path fill-rule="evenodd" clip-rule="evenodd" d="M7.33333 12.3333C7.33333 13.2538 8.07953 14 9 14H12.3333C13.2538 14 14 13.2538 14 12.3333V9C14 8.07952 13.2538 7.33333 12.3333 7.33333H9C8.07952 7.33333 7.33333 8.07953 7.33333 9V12.3333ZM9 12.6667C8.81591 12.6667 8.66667 12.5174 8.66667 12.3333V9C8.66667 8.81591 8.8159 8.66667 9 8.66667H12.3333C12.5174 8.66667 12.6667 8.81591 12.6667 9V12.3333C12.6667 12.5174 12.5174 12.6667 12.3333 12.6667H9Z" fill="#F9FAFB"/>
<path fill-rule="evenodd" clip-rule="evenodd" d="M7.33333 5C7.33333 5.92047 8.07953 6.66667 9 6.66667H12.3333C13.2538 6.66667 14 5.92047 14 5V1.66667C14 0.746192 13.2538 0 12.3333 0H9C8.07952 0 7.33333 0.746192 7.33333 1.66667V5ZM9 5.33333C8.81591 5.33333 8.66667 5.18409 8.66667 5V1.66667C8.66667 1.48257 8.8159 1.33333 9 1.33333L12.3333 1.33333C12.5174 1.33333 12.6667 1.48257 12.6667 1.66667V5C12.6667 5.18409 12.5174 5.33333 12.3333 5.33333L9 5.33333Z" fill="#F9FAFB"/>
</svg>
