<svg width="16" height="15" viewBox="0 0 16 15" fill="none" xmlns="http://www.w3.org/2000/svg">
<path fill-rule="evenodd" clip-rule="evenodd" d="M9.53097 0.588494C8.61279 -0.0542365 7.39069 -0.0542383 6.47251 0.588493L1.88746 3.79803C1.11504 4.33872 0.685563 5.2471 0.757876 6.18717L1.22789 12.2973C1.31653 13.4497 2.36067 14.2873 3.50484 14.1238L5.61792 13.822C6.60322 13.6812 7.33507 12.8374 7.33507 11.8421V10.9985C7.33507 10.6303 7.63355 10.3318 8.00174 10.3318C8.36993 10.3318 8.66841 10.6303 8.66841 10.9985V11.8421C8.66841 12.8374 9.40027 13.6812 10.3856 13.822L12.4986 14.1238C13.6428 14.2873 14.6869 13.4497 14.7756 12.2973L15.2456 6.18717C15.3179 5.2471 14.8884 4.33872 14.116 3.79803L9.53097 0.588494ZM7.23712 1.6808C7.69622 1.35944 8.30726 1.35944 8.76636 1.6808L13.3514 4.89034C13.7376 5.16068 13.9524 5.61487 13.9162 6.08491L13.4462 12.1951C13.4166 12.5792 13.0686 12.8584 12.6872 12.8039L10.5741 12.502C10.2457 12.4551 10.0017 12.1738 10.0017 11.8421V10.9985C10.0017 9.8939 9.10631 8.99847 8.00174 8.99847C6.89717 8.99847 6.00174 9.8939 6.00174 10.9985V11.8421C6.00174 12.1738 5.75779 12.4551 5.42936 12.502L3.31628 12.8039C2.93489 12.8584 2.58684 12.5792 2.55729 12.1951L2.08728 6.08491C2.05113 5.61487 2.26587 5.16068 2.65207 4.89034L7.23712 1.6808Z" fill="#F9FAFB"/>
</svg>
