<svg width="29" height="28" viewBox="0 0 29 28" fill="none" xmlns="http://www.w3.org/2000/svg">
<mask id="path-1-inside-1_1968_2618" fill="white">
<path d="M13.4631 2.23085C15.2967 0.998782 17.782 1.48648 19.0141 3.32014L25.7866 13.3996C27.0187 15.2333 26.531 17.7186 24.6973 18.9506L14.5543 25.7658C12.7207 26.9979 10.2354 26.5102 9.00336 24.6765L2.2308 14.597C0.998737 12.7634 1.48643 10.2781 3.32009 9.04606L13.4631 2.23085Z"/>
</mask>
<path d="M13.4631 2.23085C15.2967 0.998782 17.782 1.48648 19.0141 3.32014L25.7866 13.3996C27.0187 15.2333 26.531 17.7186 24.6973 18.9506L14.5543 25.7658C12.7207 26.9979 10.2354 26.5102 9.00336 24.6765L2.2308 14.597C0.998737 12.7634 1.48643 10.2781 3.32009 9.04606L13.4631 2.23085Z" fill="#1671D9"/>
<path d="M13.4631 2.23085C15.7551 0.690769 18.8617 1.30038 20.4018 3.59246L26.6166 12.8419C28.1567 15.134 27.5471 18.2406 25.255 19.7807L24.1396 18.1206C25.5149 17.1965 25.8806 15.3326 24.9566 13.9573L18.184 3.87785C16.952 2.04419 14.8383 1.3068 13.4631 2.23085ZM11.2342 27.9967L-4.54596e-05 11.2769L11.2342 27.9967ZM-4.54596e-05 11.2769L16.7832 0L-4.54596e-05 11.2769ZM26.6166 12.8419C28.1567 15.134 27.5471 18.2406 25.255 19.7807L15.9421 26.0382C13.65 27.5782 10.5434 26.9686 9.00336 24.6765C9.92741 26.0518 12.163 26.1679 13.9966 24.9358L24.1396 18.1206C25.5149 17.1965 25.8806 15.3326 24.9566 13.9573L26.6166 12.8419Z" fill="#1D2739" mask="url(#path-1-inside-1_1968_2618)"/>
</svg>
