<svg width="182" height="60" viewBox="0 0 182 60" fill="none" xmlns="http://www.w3.org/2000/svg">
<path d="M5.32 14.44H28.44V18.76H19.36V43H14.36V18.76H5.32V14.44ZM25.4391 22.32H29.7191V26.32H29.7991C29.9324 25.76 30.1857 25.2133 30.5591 24.68C30.9591 24.1467 31.4257 23.6667 31.9591 23.24C32.5191 22.7867 33.1324 22.4267 33.7991 22.16C34.4657 21.8933 35.1457 21.76 35.8391 21.76C36.3724 21.76 36.7324 21.7733 36.9191 21.8C37.1324 21.8267 37.3457 21.8533 37.5591 21.88V26.28C37.2391 26.2267 36.9057 26.1867 36.5591 26.16C36.2391 26.1067 35.9191 26.08 35.5991 26.08C34.8257 26.08 34.0924 26.24 33.3991 26.56C32.7324 26.8533 32.1457 27.3067 31.6391 27.92C31.1324 28.5067 30.7324 29.24 30.4391 30.12C30.1457 31 29.9991 32.0133 29.9991 33.16V43H25.4391V22.32ZM54.8216 38.4C54.8216 38.96 54.8882 39.36 55.0216 39.6C55.1816 39.84 55.4749 39.96 55.9016 39.96C56.0349 39.96 56.1949 39.96 56.3816 39.96C56.5682 39.96 56.7816 39.9333 57.0216 39.88V43.04C56.8616 43.0933 56.6482 43.1467 56.3816 43.2C56.1416 43.28 55.8882 43.3467 55.6216 43.4C55.3549 43.4533 55.0882 43.4933 54.8216 43.52C54.5549 43.5467 54.3282 43.56 54.1416 43.56C53.2082 43.56 52.4349 43.3733 51.8216 43C51.2082 42.6267 50.8082 41.9733 50.6216 41.04C49.7149 41.92 48.5949 42.56 47.2616 42.96C45.9549 43.36 44.6882 43.56 43.4616 43.56C42.5282 43.56 41.6349 43.4267 40.7816 43.16C39.9282 42.92 39.1682 42.56 38.5016 42.08C37.8616 41.5733 37.3416 40.9467 36.9416 40.2C36.5682 39.4267 36.3816 38.5333 36.3816 37.52C36.3816 36.24 36.6082 35.2 37.0616 34.4C37.5416 33.6 38.1549 32.9733 38.9016 32.52C39.6749 32.0667 40.5282 31.7467 41.4616 31.56C42.4216 31.3467 43.3816 31.1867 44.3416 31.08C45.1682 30.92 45.9549 30.8133 46.7016 30.76C47.4482 30.68 48.1016 30.56 48.6616 30.4C49.2482 30.24 49.7016 30 50.0216 29.68C50.3682 29.3333 50.5416 28.8267 50.5416 28.16C50.5416 27.5733 50.3949 27.0933 50.1016 26.72C49.8349 26.3467 49.4882 26.0667 49.0616 25.88C48.6616 25.6667 48.2082 25.5333 47.7016 25.48C47.1949 25.4 46.7149 25.36 46.2616 25.36C44.9816 25.36 43.9282 25.6267 43.1016 26.16C42.2749 26.6933 41.8082 27.52 41.7016 28.64H37.1416C37.2216 27.3067 37.5416 26.2 38.1016 25.32C38.6616 24.44 39.3682 23.7333 40.2216 23.2C41.1016 22.6667 42.0882 22.2933 43.1816 22.08C44.2749 21.8667 45.3949 21.76 46.5416 21.76C47.5549 21.76 48.5549 21.8667 49.5416 22.08C50.5282 22.2933 51.4082 22.64 52.1816 23.12C52.9816 23.6 53.6216 24.2267 54.1016 25C54.5816 25.7467 54.8216 26.6667 54.8216 27.76V38.4ZM50.2616 32.64C49.5682 33.0933 48.7149 33.3733 47.7016 33.48C46.6882 33.56 45.6749 33.6933 44.6616 33.88C44.1816 33.96 43.7149 34.08 43.2616 34.24C42.8082 34.3733 42.4082 34.5733 42.0616 34.84C41.7149 35.08 41.4349 35.4133 41.2216 35.84C41.0349 36.24 40.9416 36.7333 40.9416 37.32C40.9416 37.8267 41.0882 38.2533 41.3816 38.6C41.6749 38.9467 42.0216 39.2267 42.4216 39.44C42.8482 39.6267 43.3016 39.76 43.7816 39.84C44.2882 39.92 44.7416 39.96 45.1416 39.96C45.6482 39.96 46.1949 39.8933 46.7816 39.76C47.3682 39.6267 47.9149 39.4 48.4216 39.08C48.9549 38.76 49.3949 38.36 49.7416 37.88C50.0882 37.3733 50.2616 36.76 50.2616 36.04V32.64ZM77.2081 43H72.8881V40.2H72.8081C72.1948 41.4 71.3015 42.2667 70.1281 42.8C68.9548 43.3067 67.7148 43.56 66.4081 43.56C64.7815 43.56 63.3548 43.28 62.1281 42.72C60.9281 42.1333 59.9281 41.3467 59.1281 40.36C58.3281 39.3733 57.7281 38.2133 57.3281 36.88C56.9281 35.52 56.7281 34.0667 56.7281 32.52C56.7281 30.6533 56.9815 29.04 57.4881 27.68C57.9948 26.32 58.6615 25.2 59.4881 24.32C60.3415 23.44 61.3015 22.8 62.3681 22.4C63.4615 21.9733 64.5681 21.76 65.6881 21.76C66.3281 21.76 66.9815 21.8267 67.6481 21.96C68.3148 22.0667 68.9548 22.2533 69.5681 22.52C70.1815 22.7867 70.7415 23.1333 71.2481 23.56C71.7815 23.96 72.2215 24.44 72.5681 25H72.6481V14.44H77.2081V43ZM61.2881 32.88C61.2881 33.76 61.3948 34.6267 61.6081 35.48C61.8481 36.3333 62.1948 37.0933 62.6481 37.76C63.1281 38.4267 63.7281 38.96 64.4481 39.36C65.1681 39.76 66.0215 39.96 67.0081 39.96C68.0215 39.96 68.8881 39.7467 69.6081 39.32C70.3548 38.8933 70.9548 38.3333 71.4081 37.64C71.8881 36.9467 72.2348 36.1733 72.4481 35.32C72.6881 34.44 72.8081 33.5467 72.8081 32.64C72.8081 30.3467 72.2881 28.56 71.2481 27.28C70.2348 26 68.8481 25.36 67.0881 25.36C66.0215 25.36 65.1148 25.5867 64.3681 26.04C63.6481 26.4667 63.0481 27.04 62.5681 27.76C62.1148 28.4533 61.7815 29.2533 61.5681 30.16C61.3815 31.04 61.2881 31.9467 61.2881 32.88ZM94.3813 30.84C94.3279 30.12 94.1679 29.4267 93.9013 28.76C93.6613 28.0933 93.3146 27.52 92.8613 27.04C92.4346 26.5333 91.9013 26.1333 91.2613 25.84C90.6479 25.52 89.9546 25.36 89.1813 25.36C88.3813 25.36 87.6479 25.5067 86.9813 25.8C86.3413 26.0667 85.7813 26.4533 85.3013 26.96C84.8479 27.44 84.4746 28.0133 84.1813 28.68C83.9146 29.3467 83.7679 30.0667 83.7413 30.84H94.3813ZM83.7413 33.84C83.7413 34.64 83.8479 35.4133 84.0613 36.16C84.3013 36.9067 84.6479 37.56 85.1013 38.12C85.5546 38.68 86.1279 39.1333 86.8213 39.48C87.5146 39.8 88.3413 39.96 89.3013 39.96C90.6346 39.96 91.7013 39.68 92.5013 39.12C93.3279 38.5333 93.9413 37.6667 94.3413 36.52H98.6613C98.4213 37.64 98.0079 38.64 97.4213 39.52C96.8346 40.4 96.1279 41.1467 95.3013 41.76C94.4746 42.3467 93.5413 42.7867 92.5013 43.08C91.4879 43.4 90.4213 43.56 89.3013 43.56C87.6746 43.56 86.2346 43.2933 84.9813 42.76C83.7279 42.2267 82.6613 41.48 81.7813 40.52C80.9279 39.56 80.2746 38.4133 79.8213 37.08C79.3946 35.7467 79.1813 34.28 79.1813 32.68C79.1813 31.2133 79.4079 29.8267 79.8613 28.52C80.3413 27.1867 81.0079 26.0267 81.8613 25.04C82.7413 24.0267 83.7946 23.2267 85.0213 22.64C86.2479 22.0533 87.6346 21.76 89.1813 21.76C90.8079 21.76 92.2613 22.1067 93.5413 22.8C94.8479 23.4667 95.9279 24.36 96.7813 25.48C97.6346 26.6 98.2479 27.8933 98.6213 29.36C99.0213 30.8 99.1279 32.2933 98.9413 33.84H83.7413Z" fill="#1D2739"/>
<path d="M100.528 14.44H105.088V25H105.168C105.488 24.4933 105.874 24.04 106.328 23.64C106.781 23.24 107.274 22.9067 107.808 22.64C108.368 22.3467 108.941 22.1333 109.528 22C110.141 21.84 110.741 21.76 111.328 21.76C112.954 21.76 114.368 22.0533 115.568 22.64C116.794 23.2 117.808 23.9867 118.608 25C119.408 25.9867 120.008 27.1467 120.408 28.48C120.808 29.8133 121.008 31.24 121.008 32.76C121.008 34.1467 120.821 35.4933 120.448 36.8C120.101 38.1067 119.554 39.2667 118.808 40.28C118.088 41.2667 117.168 42.0667 116.048 42.68C114.928 43.2667 113.608 43.56 112.088 43.56C111.394 43.56 110.688 43.5067 109.968 43.4C109.274 43.32 108.608 43.1467 107.968 42.88C107.328 42.6133 106.741 42.2667 106.208 41.84C105.701 41.4133 105.274 40.8533 104.928 40.16H104.848V43H100.528V14.44ZM116.448 32.68C116.448 31.7467 116.328 30.84 116.088 29.96C115.848 29.08 115.488 28.3067 115.008 27.64C114.528 26.9467 113.928 26.4 113.208 26C112.488 25.5733 111.661 25.36 110.728 25.36C108.808 25.36 107.354 26.0267 106.368 27.36C105.408 28.6933 104.928 30.4667 104.928 32.68C104.928 33.72 105.048 34.6933 105.288 35.6C105.554 36.48 105.941 37.24 106.448 37.88C106.954 38.52 107.554 39.0267 108.248 39.4C108.968 39.7733 109.794 39.96 110.728 39.96C111.768 39.96 112.648 39.7467 113.368 39.32C114.088 38.8933 114.674 38.3467 115.128 37.68C115.608 36.9867 115.941 36.2133 116.128 35.36C116.341 34.48 116.448 33.5867 116.448 32.68ZM140.181 38.4C140.181 38.96 140.248 39.36 140.381 39.6C140.541 39.84 140.834 39.96 141.261 39.96C141.394 39.96 141.554 39.96 141.741 39.96C141.928 39.96 142.141 39.9333 142.381 39.88V43.04C142.221 43.0933 142.008 43.1467 141.741 43.2C141.501 43.28 141.248 43.3467 140.981 43.4C140.714 43.4533 140.448 43.4933 140.181 43.52C139.914 43.5467 139.688 43.56 139.501 43.56C138.568 43.56 137.794 43.3733 137.181 43C136.568 42.6267 136.168 41.9733 135.981 41.04C135.074 41.92 133.954 42.56 132.621 42.96C131.314 43.36 130.048 43.56 128.821 43.56C127.888 43.56 126.994 43.4267 126.141 43.16C125.288 42.92 124.528 42.56 123.861 42.08C123.221 41.5733 122.701 40.9467 122.301 40.2C121.928 39.4267 121.741 38.5333 121.741 37.52C121.741 36.24 121.968 35.2 122.421 34.4C122.901 33.6 123.514 32.9733 124.261 32.52C125.034 32.0667 125.888 31.7467 126.821 31.56C127.781 31.3467 128.741 31.1867 129.701 31.08C130.528 30.92 131.314 30.8133 132.061 30.76C132.808 30.68 133.461 30.56 134.021 30.4C134.608 30.24 135.061 30 135.381 29.68C135.728 29.3333 135.901 28.8267 135.901 28.16C135.901 27.5733 135.754 27.0933 135.461 26.72C135.194 26.3467 134.848 26.0667 134.421 25.88C134.021 25.6667 133.568 25.5333 133.061 25.48C132.554 25.4 132.074 25.36 131.621 25.36C130.341 25.36 129.288 25.6267 128.461 26.16C127.634 26.6933 127.168 27.52 127.061 28.64H122.501C122.581 27.3067 122.901 26.2 123.461 25.32C124.021 24.44 124.728 23.7333 125.581 23.2C126.461 22.6667 127.448 22.2933 128.541 22.08C129.634 21.8667 130.754 21.76 131.901 21.76C132.914 21.76 133.914 21.8667 134.901 22.08C135.888 22.2933 136.768 22.64 137.541 23.12C138.341 23.6 138.981 24.2267 139.461 25C139.941 25.7467 140.181 26.6667 140.181 27.76V38.4ZM135.621 32.64C134.928 33.0933 134.074 33.3733 133.061 33.48C132.048 33.56 131.034 33.6933 130.021 33.88C129.541 33.96 129.074 34.08 128.621 34.24C128.168 34.3733 127.768 34.5733 127.421 34.84C127.074 35.08 126.794 35.4133 126.581 35.84C126.394 36.24 126.301 36.7333 126.301 37.32C126.301 37.8267 126.448 38.2533 126.741 38.6C127.034 38.9467 127.381 39.2267 127.781 39.44C128.208 39.6267 128.661 39.76 129.141 39.84C129.648 39.92 130.101 39.96 130.501 39.96C131.008 39.96 131.554 39.8933 132.141 39.76C132.728 39.6267 133.274 39.4 133.781 39.08C134.314 38.76 134.754 38.36 135.101 37.88C135.448 37.3733 135.621 36.76 135.621 36.04V32.64ZM146.528 36.36C146.661 37.6933 147.168 38.6267 148.048 39.16C148.928 39.6933 149.981 39.96 151.208 39.96C151.634 39.96 152.114 39.9333 152.648 39.88C153.208 39.8 153.728 39.6667 154.208 39.48C154.688 39.2933 155.074 39.0267 155.368 38.68C155.688 38.3067 155.834 37.8267 155.808 37.24C155.781 36.6533 155.568 36.1733 155.168 35.8C154.768 35.4267 154.248 35.1333 153.608 34.92C152.994 34.68 152.288 34.48 151.488 34.32C150.688 34.16 149.874 33.9867 149.048 33.8C148.194 33.6133 147.368 33.3867 146.567 33.12C145.794 32.8533 145.088 32.4933 144.448 32.04C143.834 31.5867 143.341 31.0133 142.968 30.32C142.594 29.6 142.408 28.72 142.408 27.68C142.408 26.56 142.674 25.6267 143.208 24.88C143.768 24.1067 144.461 23.4933 145.288 23.04C146.141 22.56 147.074 22.2267 148.088 22.04C149.128 21.8533 150.114 21.76 151.048 21.76C152.114 21.76 153.128 21.88 154.088 22.12C155.074 22.3333 155.954 22.6933 156.728 23.2C157.528 23.7067 158.181 24.3733 158.688 25.2C159.221 26 159.554 26.9733 159.688 28.12H154.928C154.714 27.0267 154.208 26.2933 153.408 25.92C152.634 25.5467 151.741 25.36 150.728 25.36C150.408 25.36 150.021 25.3867 149.568 25.44C149.141 25.4933 148.728 25.6 148.328 25.76C147.954 25.8933 147.634 26.1067 147.368 26.4C147.101 26.6667 146.968 27.0267 146.968 27.48C146.968 28.04 147.154 28.4933 147.528 28.84C147.928 29.1867 148.434 29.48 149.048 29.72C149.688 29.9333 150.408 30.12 151.208 30.28C152.008 30.44 152.834 30.6133 153.688 30.8C154.514 30.9867 155.328 31.2133 156.128 31.48C156.928 31.7467 157.634 32.1067 158.248 32.56C158.888 33.0133 159.394 33.5867 159.768 34.28C160.168 34.9733 160.368 35.8267 160.368 36.84C160.368 38.0667 160.088 39.1067 159.528 39.96C158.968 40.8133 158.234 41.5067 157.328 42.04C156.448 42.5733 155.461 42.96 154.368 43.2C153.274 43.44 152.194 43.56 151.128 43.56C149.821 43.56 148.608 43.4133 147.488 43.12C146.394 42.8267 145.434 42.3867 144.608 41.8C143.808 41.1867 143.168 40.44 142.688 39.56C142.234 38.6533 141.994 37.5867 141.968 36.36H146.528ZM176.03 30.84C175.976 30.12 175.816 29.4267 175.55 28.76C175.31 28.0933 174.963 27.52 174.51 27.04C174.083 26.5333 173.55 26.1333 172.91 25.84C172.296 25.52 171.603 25.36 170.83 25.36C170.03 25.36 169.296 25.5067 168.63 25.8C167.99 26.0667 167.43 26.4533 166.95 26.96C166.496 27.44 166.123 28.0133 165.83 28.68C165.563 29.3467 165.416 30.0667 165.39 30.84H176.03ZM165.39 33.84C165.39 34.64 165.496 35.4133 165.71 36.16C165.95 36.9067 166.296 37.56 166.75 38.12C167.203 38.68 167.776 39.1333 168.47 39.48C169.163 39.8 169.99 39.96 170.95 39.96C172.283 39.96 173.35 39.68 174.15 39.12C174.976 38.5333 175.59 37.6667 175.99 36.52H180.31C180.07 37.64 179.656 38.64 179.07 39.52C178.483 40.4 177.776 41.1467 176.95 41.76C176.123 42.3467 175.19 42.7867 174.15 43.08C173.136 43.4 172.07 43.56 170.95 43.56C169.323 43.56 167.883 43.2933 166.63 42.76C165.376 42.2267 164.31 41.48 163.43 40.52C162.576 39.56 161.923 38.4133 161.47 37.08C161.043 35.7467 160.83 34.28 160.83 32.68C160.83 31.2133 161.056 29.8267 161.51 28.52C161.99 27.1867 162.656 26.0267 163.51 25.04C164.39 24.0267 165.443 23.2267 166.67 22.64C167.896 22.0533 169.283 21.76 170.83 21.76C172.456 21.76 173.91 22.1067 175.19 22.8C176.496 23.4667 177.576 24.36 178.43 25.48C179.283 26.6 179.896 27.8933 180.27 29.36C180.67 30.8 180.776 32.2933 180.59 33.84H165.39Z" fill="#1671D9"/>
<mask id="path-2-inside-1_1968_2616" fill="white">
<path d="M13.4631 34.2308C15.2967 32.9988 17.782 33.4865 19.0141 35.3201L25.7866 45.3996C27.0187 47.2333 26.531 49.7186 24.6973 50.9506L14.5543 57.7658C12.7207 58.9979 10.2354 58.5102 9.00336 56.6765L2.2308 46.597C0.998737 44.7634 1.48643 42.2781 3.32009 41.0461L13.4631 34.2308Z"/>
</mask>
<path d="M13.4631 34.2308C15.2967 32.9988 17.782 33.4865 19.0141 35.3201L25.7866 45.3996C27.0187 47.2333 26.531 49.7186 24.6973 50.9506L14.5543 57.7658C12.7207 58.9979 10.2354 58.5102 9.00336 56.6765L2.2308 46.597C0.998737 44.7634 1.48643 42.2781 3.32009 41.0461L13.4631 34.2308Z" fill="#1671D9"/>
<path d="M13.4631 34.2308C15.7551 32.6908 18.8617 33.3004 20.4018 35.5925L26.6166 44.8419C28.1567 47.134 27.5471 50.2406 25.255 51.7807L24.1396 50.1206C25.5149 49.1965 25.8806 47.3326 24.9566 45.9573L18.184 35.8778C16.952 34.0442 14.8383 33.3068 13.4631 34.2308ZM11.2342 59.9967L-4.54596e-05 43.2769L11.2342 59.9967ZM-4.54596e-05 43.2769L16.7832 32L-4.54596e-05 43.2769ZM26.6166 44.8419C28.1567 47.134 27.5471 50.2406 25.255 51.7807L15.9421 58.0382C13.65 59.5782 10.5434 58.9686 9.00336 56.6765C9.92741 58.0518 12.163 58.1679 13.9966 56.9358L24.1396 50.1206C25.5149 49.1965 25.8806 47.3326 24.9566 45.9573L26.6166 44.8419Z" fill="#1D2739" mask="url(#path-2-inside-1_1968_2616)"/>
</svg>
