<svg width="26" height="26" viewBox="0 0 26 26" fill="none" xmlns="http://www.w3.org/2000/svg">
<path d="M12.9993 9.20866C12.9993 8.61035 12.5143 8.12533 11.916 8.12533C11.3177 8.12533 10.8327 8.61035 10.8327 9.20866V14.6253C10.8327 15.2236 11.3177 15.7087 11.916 15.7087H15.166C15.7643 15.7087 16.2493 15.2236 16.2493 14.6253C16.2493 14.027 15.7643 13.542 15.166 13.542H12.9993V9.20866Z" fill="#101928"/>
<path fill-rule="evenodd" clip-rule="evenodd" d="M12.9993 2.16699C7.01626 2.16699 2.16602 7.01724 2.16602 13.0003C2.16602 18.9834 7.01626 23.8337 12.9993 23.8337C18.9824 23.8337 23.8327 18.9834 23.8327 13.0003C23.8327 7.01724 18.9824 2.16699 12.9993 2.16699ZM4.33268 13.0003C4.33268 8.21386 8.21288 4.33366 12.9993 4.33366C17.7858 4.33366 21.666 8.21386 21.666 13.0003C21.666 17.7868 17.7858 21.667 12.9993 21.667C8.21288 21.667 4.33268 17.7868 4.33268 13.0003Z" fill="#101928"/>
</svg>
