<svg width="175" height="132" viewBox="0 0 175 132" fill="none" xmlns="http://www.w3.org/2000/svg">
<g clip-path="url(#clip0_8391_22288)">
<path d="M99.4933 85.3641C98.0874 82.722 94.8363 81.7037 92.2317 83.0896C89.6271 84.4755 88.6554 87.7409 90.0614 90.3831L95.1526 99.951C96.5586 102.593 99.8097 103.612 102.414 102.226C105.019 100.84 105.991 97.5743 104.585 94.9321L99.4933 85.3641Z" fill="#474B50" fill-opacity="0.2"/>
<path fill-rule="evenodd" clip-rule="evenodd" d="M102.708 34.5449C94.2725 18.6922 74.7656 12.5821 59.1383 20.8977C43.5109 29.2133 37.6808 48.8056 46.1163 64.6584L51.2076 74.2263C40.7893 79.7701 36.9026 92.8316 42.5263 103.4L57.8002 132.104C63.4238 142.673 76.4284 146.746 86.8466 141.202L143.438 111.089C153.857 105.545 157.743 92.4836 152.12 81.9151L136.846 53.2111C131.222 42.6426 118.218 38.5692 107.799 44.1129L102.708 34.5449ZM55.5483 59.6394C49.9246 49.0709 53.8113 36.0094 64.2296 30.4657C74.6478 24.9219 87.6524 28.9953 93.2761 39.5638L98.3674 49.1318L60.6395 69.2074L55.5483 59.6394ZM51.9582 98.3812C49.1464 93.097 51.0898 86.5662 56.2989 83.7943L112.891 53.6809C118.1 50.909 124.602 52.9457 127.414 58.23L142.688 86.934C145.5 92.2182 143.556 98.749 138.347 101.521L81.7554 131.634C76.5462 134.406 70.044 132.369 67.2321 127.085L51.9582 98.3812Z" fill="#474B50" fill-opacity="0.2"/>
</g>
<defs>
<clipPath id="clip0_8391_22288">
<rect width="128.21" height="130.059" fill="white" transform="translate(0 46.2271) rotate(-28.0182)"/>
</clipPath>
</defs>
</svg>
