<svg width="22" height="22" viewBox="0 0 22 22" fill="none" xmlns="http://www.w3.org/2000/svg">
<rect width="20" height="20" rx="10" fill="#B5E3C4"/>
<path d="M10.8516 8.10547C10.824 7.84703 10.7076 7.64579 10.5024 7.50178C10.2992 7.35776 10.0348 7.28575 9.7093 7.28575C9.48044 7.28575 9.28415 7.32027 9.1204 7.38932C8.95665 7.45837 8.83138 7.55208 8.74457 7.67045C8.65776 7.78883 8.61338 7.92397 8.6114 8.07588C8.6114 8.20214 8.64001 8.31163 8.69722 8.40436C8.75641 8.49708 8.83631 8.57599 8.93692 8.6411C9.03754 8.70423 9.149 8.7575 9.27132 8.8009C9.39364 8.8443 9.51694 8.8808 9.64123 8.91039L10.2094 9.05244C10.4383 9.10571 10.6582 9.17771 10.8693 9.26847C11.0824 9.35922 11.2728 9.47364 11.4405 9.61174C11.6101 9.74984 11.7443 9.91655 11.8429 10.1119C11.9416 10.3072 11.9909 10.536 11.9909 10.7984C11.9909 11.1535 11.9001 11.4662 11.7186 11.7365C11.5371 12.0048 11.2748 12.2149 10.9315 12.3668C10.5902 12.5168 10.1769 12.5917 9.69154 12.5917C9.22003 12.5917 8.81066 12.5187 8.46344 12.3728C8.11819 12.2268 7.84791 12.0137 7.6526 11.7335C7.45926 11.4534 7.35469 11.1121 7.33891 10.7096H8.41905C8.43483 10.9207 8.49994 11.0963 8.61436 11.2364C8.72879 11.3765 8.87774 11.481 9.06121 11.5501C9.24666 11.6191 9.45381 11.6536 9.68266 11.6536C9.92138 11.6536 10.1305 11.6181 10.31 11.5471C10.4915 11.4741 10.6336 11.3735 10.7362 11.2453C10.8388 11.1151 10.891 10.9631 10.893 10.7895C10.891 10.6317 10.8447 10.5015 10.7539 10.3989C10.6632 10.2943 10.5359 10.2075 10.3722 10.1385C10.2104 10.0675 10.021 10.0043 9.80399 9.9491L9.11448 9.77154C8.61535 9.64331 8.22078 9.44898 7.93077 9.18857C7.64273 8.92618 7.49871 8.57797 7.49871 8.14394C7.49871 7.78685 7.59538 7.47416 7.78872 7.20585C7.98403 6.93754 8.24938 6.7294 8.58477 6.58144C8.92015 6.4315 9.29993 6.35653 9.72409 6.35653C10.1542 6.35653 10.531 6.4315 10.8545 6.58144C11.1801 6.7294 11.4355 6.93557 11.621 7.19993C11.8064 7.46232 11.9021 7.76417 11.908 8.10547H10.8516Z" fill="#012657"/>
<g clip-path="url(#clip0_8390_21193)">
<circle cx="17.4987" cy="17.4997" r="4.16667" fill="#0F973D"/>
<g clip-path="url(#clip1_8390_21193)">
<path fill-rule="evenodd" clip-rule="evenodd" d="M19.4521 16.6566C19.6194 16.4986 19.6269 16.2349 19.4689 16.0676C19.3109 15.9003 19.0472 15.8928 18.8799 16.0508L16.7396 18.0722L16.1188 17.4858C15.9515 17.3278 15.6878 17.3353 15.5298 17.5026C15.3718 17.6699 15.3793 17.9336 15.5466 18.0917L16.4535 18.9483C16.6141 19.0999 16.8652 19.0999 17.0257 18.9483L19.4521 16.6566Z" fill="white"/>
</g>
</g>
<defs>
<clipPath id="clip0_8390_21193">
<rect width="8.33333" height="8.33333" fill="white" transform="translate(13.334 13.3335)"/>
</clipPath>
<clipPath id="clip1_8390_21193">
<rect width="5" height="5" fill="white" transform="translate(14.998 14.9995)"/>
</clipPath>
</defs>
</svg>
