 <svg width="22" height="22" viewBox="0 0 22 22" fill="none" xmlns="http://www.w3.org/2000/svg">
<rect width="20" height="20" rx="10" fill="#B6D8FF"/>
<path d="M12.9525 9.4697C12.9525 10.1227 12.8302 10.682 12.5856 11.1476C12.3429 11.6112 12.0115 11.9663 11.5913 12.2129C11.173 12.4596 10.6986 12.5829 10.1679 12.5829C9.63717 12.5829 9.16171 12.4596 8.74149 12.2129C8.32325 11.9644 7.99181 11.6083 7.74717 11.1446C7.50451 10.6791 7.38318 10.1207 7.38318 9.4697C7.38318 8.81668 7.50451 8.25836 7.74717 7.79474C7.99181 7.32915 8.32325 6.97305 8.74149 6.72644C9.16171 6.47984 9.63717 6.35653 10.1679 6.35653C10.6986 6.35653 11.173 6.47984 11.5913 6.72644C12.0115 6.97305 12.3429 7.32915 12.5856 7.79474C12.8302 8.25836 12.9525 8.81668 12.9525 9.4697ZM11.8487 9.4697C11.8487 9.01002 11.7767 8.62236 11.6327 8.3067C11.4907 7.98907 11.2934 7.74937 11.0409 7.58759C10.7883 7.42385 10.4973 7.34197 10.1679 7.34197C9.8384 7.34197 9.5474 7.42385 9.29488 7.58759C9.04235 7.74937 8.84408 7.98907 8.70006 8.3067C8.55802 8.62236 8.48699 9.01002 8.48699 9.4697C8.48699 9.92937 8.55802 10.318 8.70006 10.6357C8.84408 10.9513 9.04235 11.191 9.29488 11.3548C9.5474 11.5165 9.8384 11.5974 10.1679 11.5974C10.4973 11.5974 10.7883 11.5165 11.0409 11.3548C11.2934 11.191 11.4907 10.9513 11.6327 10.6357C11.7767 10.318 11.8487 9.92937 11.8487 9.4697Z" fill="#012657"/>
<g clip-path="url(#clip0_8390_21198)">
<circle cx="17.4987" cy="17.5002" r="4.16667" fill="#1671D9"/>
<g clip-path="url(#clip1_8390_21198)">
<path fill-rule="evenodd" clip-rule="evenodd" d="M19.4521 16.6571C19.6194 16.4991 19.6269 16.2354 19.4689 16.0681C19.3109 15.9008 19.0472 15.8932 18.8799 16.0513L16.7396 18.0727L16.1188 17.4863C15.9515 17.3283 15.6878 17.3358 15.5298 17.5031C15.3718 17.6704 15.3793 17.9341 15.5466 18.0921L16.4535 18.9488C16.6141 19.1004 16.8652 19.1004 17.0257 18.9488L19.4521 16.6571Z" fill="white"/>
</g>
</g>
<defs>
<clipPath id="clip0_8390_21198">
<rect width="8.33333" height="8.33333" fill="white" transform="translate(13.334 13.3335)"/>
</clipPath>
<clipPath id="clip1_8390_21198">
<rect width="5" height="5" fill="white" transform="translate(14.998 15)"/>
</clipPath>
</defs>
</svg>
