<svg width="24" height="24" viewBox="0 0 24 24" fill="none" xmlns="http://www.w3.org/2000/svg">
<path d="M6.93076 18.5411C6.69913 17.8462 6.15384 17.3009 5.45895 17.0693C4.75173 16.8336 4.75173 15.8332 5.45895 15.5975C6.15384 15.3659 6.69913 14.8206 6.93076 14.1257C7.1665 13.4185 8.16683 13.4185 8.40257 14.1257C8.6342 14.8206 9.17949 15.3659 9.87438 15.5975C10.5816 15.8332 10.5816 16.8336 9.87438 17.0693C9.17949 17.3009 8.6342 17.8462 8.40257 18.5411C8.16683 19.2483 7.1665 19.2483 6.93076 18.5411Z" fill="#101928"/>
<path fill-rule="evenodd" clip-rule="evenodd" d="M8.28921 9.31881C8.2359 8.95601 8.20833 8.58518 8.20833 8.20833C8.20833 4.02017 11.6035 0.625 15.7917 0.625C19.9798 0.625 23.375 4.02017 23.375 8.20833C23.375 12.3965 19.9798 15.7917 15.7917 15.7917C15.4148 15.7917 15.044 15.7641 14.6812 15.7108C14.6992 15.9159 14.7083 16.1235 14.7083 16.3333C14.7083 20.2223 11.5557 23.375 7.66667 23.375C3.77766 23.375 0.625 20.2223 0.625 16.3333C0.625 12.4443 3.77766 9.29167 7.66667 9.29167C7.87645 9.29167 8.08409 9.30084 8.28921 9.31881ZM10.375 8.20833C10.375 5.21679 12.8001 2.79167 15.7917 2.79167C18.7832 2.79167 21.2083 5.21679 21.2083 8.20833C21.2083 11.1999 18.7832 13.625 15.7917 13.625C15.177 13.625 14.5884 13.523 14.0404 13.3359C13.3429 11.8553 12.1447 10.6571 10.6641 9.95962C10.477 9.41164 10.375 8.82299 10.375 8.20833ZM7.66667 11.4583C4.97428 11.4583 2.79167 13.6409 2.79167 16.3333C2.79167 19.0257 4.97428 21.2083 7.66667 21.2083C10.3591 21.2083 12.5417 19.0257 12.5417 16.3333C12.5417 13.6409 10.3591 11.4583 7.66667 11.4583Z" fill="#101928"/>
</svg>
