 <svg
       width="30"
       height="30"
       viewBox="0 0 30 30"
       fill="none"
       xmlns="http://www.w3.org/2000/svg"
     >
       <path
         fill-rule="evenodd"
         clip-rule="evenodd"
         d="M17.5009 3.75C13.3588 3.75 10.0009 7.10786 10.0009 11.25C10.0009 15.3921 13.3588 18.75 17.5009 18.75C21.643 18.75 25.0009 15.3921 25.0009 11.25C25.0009 7.10786 21.643 3.75 17.5009 3.75ZM12.5009 11.25C12.5009 8.48858 14.7395 6.25 17.5009 6.25C20.2623 6.25 22.5009 8.48858 22.5009 11.25C22.5009 14.0114 20.2623 16.25 17.5009 16.25C14.7395 16.25 12.5009 14.0114 12.5009 11.25Z"
         fill="#F77A4A"
       />
       <path
         d="M10.1952 25.659C9.8312 26.2456 9.0606 26.4261 8.47398 26.0622C7.88736 25.6982 7.70685 24.9276 8.07081 24.341C9.78256 21.582 13.2844 18.75 17.5009 18.75C21.7174 18.75 25.2193 21.582 26.931 24.341C27.295 24.9276 27.1145 25.6982 26.5279 26.0622C25.9412 26.4261 25.1706 26.2456 24.8067 25.659C23.404 23.3982 20.6063 21.25 17.5009 21.25C14.3955 21.25 11.5978 23.3982 10.1952 25.659Z"
         fill="#F77A4A"
       />
       <path
         d="M9.87323 8.19964C10.1772 8.81949 9.9211 9.56837 9.30126 9.87232C8.16542 10.4293 7.5009 11.4397 7.5009 12.5C7.5009 13.5603 8.16542 14.5707 9.30126 15.1277C9.9211 15.4316 10.1772 16.1805 9.87323 16.8004C9.56927 17.4202 8.82039 17.6763 8.20055 17.3723C6.35454 16.4671 5.0009 14.6669 5.0009 12.5C5.0009 10.3331 6.35454 8.53291 8.20055 7.62768C8.82039 7.32372 9.56927 7.5798 9.87323 8.19964Z"
         fill="#F77A4A"
       />
       <path
         d="M5.19516 25.659C4.8312 26.2456 4.0606 26.4261 3.47398 26.0622C2.88736 25.6982 2.70685 24.9276 3.07081 24.341C3.79468 23.1743 4.95285 22.2005 6.24495 21.4449C6.8409 21.0964 7.6065 21.2971 7.95498 21.893C8.30346 22.489 8.10284 23.2546 7.50689 23.603C6.42726 24.2344 5.63292 24.9534 5.19516 25.659Z"
         fill="#F77A4A"
       />
     </svg>