<svg width="20" height="21" viewBox="0 0 20 21" fill="none" xmlns="http://www.w3.org/2000/svg">
<path fill-rule="evenodd" clip-rule="evenodd" d="M16 0.5C13.7909 0.5 12 2.29086 12 4.5C12 4.67082 12.0107 4.83914 12.0315 5.00432C11.8869 5.12045 11.6985 5.26747 11.4788 5.42902C10.9429 5.82314 10.2538 6.27943 9.57868 6.59309C8.99866 6.86254 8.30204 7.09639 7.73147 7.26609C7.45014 7.34976 7.20735 7.41553 7.03572 7.46018C6.95002 7.48247 6.8824 7.49941 6.83697 7.51059L6.78608 7.52298L6.77415 7.52583L6.77175 7.5264C6.74671 7.53227 6.72194 7.53908 6.69782 7.5467C5.98653 6.89658 5.03958 6.5 4 6.5C1.79086 6.5 0 8.29086 0 10.5C0 12.7091 1.79086 14.5 4 14.5C5.03956 14.5 5.98649 14.1034 6.69778 13.4533C6.73402 13.4648 6.77128 13.4743 6.80948 13.4817L6.81057 13.4819L6.82053 13.4839L6.86628 13.4934C6.90782 13.5021 6.97066 13.5158 7.05117 13.5344C7.21245 13.5717 7.44304 13.6286 7.71409 13.7056C8.26329 13.8617 8.94737 14.0917 9.55279 14.3944C10.165 14.7005 10.8643 15.1641 11.4305 15.5694C11.665 15.7373 11.8705 15.8907 12.0295 16.0118C12.01 16.1718 12 16.3347 12 16.5C12 18.7091 13.7909 20.5 16 20.5C18.2091 20.5 20 18.7091 20 16.5C20 14.2909 18.2091 12.5 16 12.5C14.6938 12.5 13.5339 13.1261 12.8039 14.0945C12.737 14.0456 12.6671 13.995 12.5946 13.9431C12.0026 13.5193 11.2019 12.9829 10.4472 12.6056C9.68579 12.2249 8.86987 11.9549 8.26078 11.7818C8.1033 11.7371 7.95757 11.6982 7.82766 11.6651C7.93973 11.2965 8 10.9053 8 10.5C8 10.0892 7.93808 9.69291 7.82307 9.31988C7.96473 9.28102 8.12635 9.23523 8.30163 9.1831C8.90876 9.00253 9.71213 8.73638 10.4213 8.40691C11.2695 8.01287 12.0805 7.46917 12.6637 7.04021C12.717 7.001 12.7687 6.96254 12.8187 6.92502C13.5495 7.88233 14.7026 8.5 16 8.5C18.2091 8.5 20 6.70914 20 4.5C20 2.29086 18.2091 0.5 16 0.5ZM14 4.5C14 3.39543 14.8954 2.5 16 2.5C17.1046 2.5 18 3.39543 18 4.5C18 5.60457 17.1046 6.5 16 6.5C14.8954 6.5 14 5.60457 14 4.5ZM2 10.5C2 9.39543 2.89543 8.5 4 8.5C5.10457 8.5 6 9.39543 6 10.5C6 11.6046 5.10457 12.5 4 12.5C2.89543 12.5 2 11.6046 2 10.5ZM14 16.5C14 15.3954 14.8954 14.5 16 14.5C17.1046 14.5 18 15.3954 18 16.5C18 17.6046 17.1046 18.5 16 18.5C14.8954 18.5 14 17.6046 14 16.5Z" fill="#F9FAFB"/>
</svg>
