<svg
       width="30"
       height="30"
       viewBox="0 0 30 30"
       fill="none"
       xmlns="http://www.w3.org/2000/svg"
     >
       <path
         d="M9.15088 22.5474C8.88361 21.7456 8.25444 21.1165 7.45263 20.8492C6.63661 20.5772 6.63661 19.423 7.45263 19.1509C8.25444 18.8837 8.88361 18.2545 9.15088 17.4527C9.42288 16.6367 10.5771 16.6367 10.8491 17.4527C11.1164 18.2545 11.7456 18.8837 12.5474 19.1509C13.3634 19.423 13.3634 20.5772 12.5474 20.8492C11.7456 21.1165 11.1164 21.7456 10.8491 22.5474C10.5771 23.3635 9.42288 23.3635 9.15088 22.5474Z"
         fill="#3D89DF"
       />
       <path
         fill-rule="evenodd"
         clip-rule="evenodd"
         d="M10.7183 11.9063C10.6568 11.4877 10.625 11.0598 10.625 10.625C10.625 5.79251 14.5425 1.875 19.375 1.875C24.2075 1.875 28.125 5.79251 28.125 10.625C28.125 15.4575 24.2075 19.375 19.375 19.375C18.9402 19.375 18.5123 19.3432 18.0937 19.2817C18.1144 19.5184 18.125 19.7579 18.125 20C18.125 24.4873 14.4873 28.125 10 28.125C5.51269 28.125 1.875 24.4873 1.875 20C1.875 15.5127 5.51269 11.875 10 11.875C10.2421 11.875 10.4816 11.8856 10.7183 11.9063ZM13.125 10.625C13.125 7.17322 15.9232 4.375 19.375 4.375C22.8268 4.375 25.625 7.17322 25.625 10.625C25.625 14.0768 22.8268 16.875 19.375 16.875C18.6658 16.875 17.9866 16.7574 17.3543 16.5415C16.5495 14.8331 15.1669 13.4505 13.4585 12.6457C13.2426 12.0134 13.125 11.3342 13.125 10.625ZM10 14.375C6.8934 14.375 4.375 16.8934 4.375 20C4.375 23.1066 6.8934 25.625 10 25.625C13.1066 25.625 15.625 23.1066 15.625 20C15.625 16.8934 13.1066 14.375 10 14.375Z"
         fill="#3D89DF"
       />
     </svg>