<svg width="57" height="57" viewBox="0 0 57 57" fill="none" xmlns="http://www.w3.org/2000/svg">
<circle cx="28.5" cy="28.5" r="28" fill="#F0F2F5"/>
<path d="M21.4993 25.5835C21.4993 22.0397 24.3722 19.1668 27.916 19.1668C31.0552 19.1668 33.67 21.4222 34.2242 24.4013C34.3019 24.819 34.6006 25.1615 35.0039 25.2953C37.3265 26.0656 38.9994 28.2557 38.9994 30.8335C38.9994 34.0552 36.3877 36.6668 33.166 36.6668C32.5217 36.6668 31.9993 37.1892 31.9993 37.8335C31.9993 38.4778 32.5217 39.0002 33.166 39.0002C37.6763 39.0002 41.3327 35.3438 41.3327 30.8335C41.3327 27.459 39.2866 24.565 36.37 23.3197C35.372 19.5845 31.9664 16.8335 27.916 16.8335C23.0835 16.8335 19.166 20.751 19.166 25.5835C19.166 25.7005 19.1683 25.817 19.1729 25.933C17.0782 27.1415 15.666 29.4048 15.666 32.0002C15.666 35.8662 18.8 39.0002 22.666 39.0002C23.3103 39.0002 23.8327 38.4778 23.8327 37.8335C23.8327 37.1892 23.3103 36.6668 22.666 36.6668C20.0887 36.6668 17.9993 34.5775 17.9993 32.0002C17.9993 30.0666 19.1756 28.4051 20.8561 27.6971C21.3424 27.4923 21.6307 26.9865 21.5591 26.4637C21.5197 26.1765 21.4993 25.8827 21.4993 25.5835Z" fill="#475367"/>
<path d="M27.7243 31.1282C28.1663 30.7353 28.8324 30.7353 29.2744 31.1282L31.0244 32.6837C31.506 33.1118 31.5494 33.8492 31.1213 34.3308C30.7468 34.7521 30.1356 34.838 29.666 34.5663V40.1668C29.666 40.8112 29.1437 41.3335 28.4993 41.3335C27.855 41.3335 27.3327 40.8112 27.3327 40.1668V34.5663C26.8631 34.838 26.2519 34.7521 25.8774 34.3308C25.4493 33.8492 25.4927 33.1118 25.9743 32.6837L27.7243 31.1282Z" fill="#475367"/>
</svg>
