<svg width="95" height="74" viewBox="0 0 95 74" fill="none" xmlns="http://www.w3.org/2000/svg">
<path d="M84.9635 60.9402L87.0593 64.2832L77.4718 65.9541L75.376 62.611L84.9635 60.9402Z" fill="#D0D5DD"/>
<path d="M77.4715 66.2429C77.3729 66.2429 77.2798 66.1929 77.227 66.1068L75.1312 62.7637C75.0798 62.6818 75.0729 62.5804 75.1118 62.4929C75.1507 62.4054 75.2312 62.3429 75.3257 62.3262L84.9132 60.6554C85.0298 60.6345 85.1451 60.6873 85.2076 60.7859L87.3034 64.129C87.3548 64.2109 87.3618 64.3123 87.3229 64.3998C87.284 64.4873 87.2034 64.5498 87.109 64.5665L77.5215 66.2373C77.5048 66.2415 77.4882 66.2429 77.4715 66.2429ZM75.8493 62.8221L77.6132 65.6359L86.5868 64.0721L84.8229 61.2582L75.8493 62.8221Z" fill="#F9FAFB"/>
<path d="M86.0611 26.0791L85.2528 32.7166C84.0917 42.2541 83.9931 51.7374 84.9639 60.9416L75.375 62.611L79.5458 48.3485L86.0611 26.0791Z" fill="#98A2B3"/>
<path d="M75.3751 62.8999C75.2932 62.8999 75.2154 62.8651 75.1599 62.804C75.0932 62.729 75.0696 62.6262 75.0974 62.5304L85.7835 25.9985C85.8251 25.854 85.9724 25.7665 86.1196 25.7971C86.2668 25.8276 86.3668 25.9651 86.3488 26.1151L85.5404 32.7526C84.3821 42.2638 84.2849 51.7374 85.2515 60.9124C85.2682 61.0638 85.164 61.2012 85.014 61.2276L75.4265 62.8985C75.4085 62.8985 75.3918 62.8999 75.3751 62.8999ZM85.3474 29.5471L75.7821 62.2471L84.6474 60.7026C83.7057 51.5679 83.8127 42.1429 84.9654 32.6818L85.3474 29.5471Z" fill="#F9FAFB"/>
<path d="M88.1574 29.4222L86.0616 26.0791L85.2533 32.7166C84.0921 42.2541 83.9935 51.7374 84.9644 60.9416L87.0602 64.2847C86.0908 55.0805 86.188 45.5985 87.3491 36.0597L88.1574 29.4222Z" fill="#D0D5DD"/>
<path d="M87.059 64.5722C86.9618 64.5722 86.8687 64.5222 86.8145 64.4361L84.7187 61.093C84.6951 61.0555 84.6812 61.0139 84.6756 60.9694C83.7048 51.7514 83.802 42.2333 84.9659 32.6792L85.7743 26.0417C85.7895 25.9208 85.8784 25.8208 85.9979 25.7944C86.1173 25.7681 86.2409 25.8194 86.3048 25.9236L88.4006 29.2667C88.4354 29.3222 88.4506 29.3889 88.4423 29.4555L87.634 36.093C86.4756 45.6042 86.3784 55.0778 87.3451 64.2528C87.359 64.3861 87.2798 64.5125 87.152 64.5555C87.1229 64.568 87.0909 64.5722 87.059 64.5722ZM85.2437 60.8444L86.6479 63.0861C85.8104 54.2528 85.9493 45.1542 87.0604 36.025L87.8562 29.4889L86.2479 26.9236L85.5381 32.7514C84.384 42.2389 84.2854 51.6903 85.2437 60.8444Z" fill="#F9FAFB"/>
<path d="M74.0658 67.0901L76.1616 70.4331H73.7033L71.6074 67.0901H74.0658Z" fill="#D0D5DD"/>
<path d="M76.1614 70.7221H73.7045C73.6045 70.7221 73.5128 70.6707 73.46 70.586L71.3642 67.2429C71.3086 67.154 71.3058 67.0415 71.3558 66.9499C71.4072 66.8582 71.5031 66.8013 71.6086 66.8013H74.0656C74.1656 66.8013 74.2572 66.8527 74.31 66.9374L76.4058 70.2804C76.4614 70.3693 76.4642 70.4818 76.4142 70.5735C76.3628 70.6652 76.2656 70.7221 76.1614 70.7221ZM73.8628 70.1443H75.6392L73.9058 67.3791H72.1308L73.8628 70.1443Z" fill="#F9FAFB"/>
<path d="M86.6224 24.1609L86.0613 26.0789L79.546 48.3484L75.3752 62.6109L74.0654 67.0901L76.1613 70.4331L77.471 65.9539L81.6418 51.6914L88.1571 29.422L88.7182 27.5039L86.6224 24.1609Z" fill="#D0D5DD"/>
<path d="M76.1617 70.7221C76.0631 70.7221 75.97 70.6721 75.9172 70.586L73.8214 67.243C73.7769 67.1735 73.7658 67.0874 73.7894 67.0082L86.3464 24.0791C86.3783 23.9693 86.4714 23.8902 86.5839 23.8735C86.6964 23.8582 86.8075 23.9096 86.8686 24.0068L88.9644 27.3499C89.0089 27.4193 89.02 27.5055 88.9964 27.5846L76.4381 70.5138C76.4061 70.6235 76.3131 70.7027 76.2006 70.7193C76.1881 70.7207 76.1742 70.7221 76.1617 70.7221ZM74.3797 67.0457L76.0644 69.7346L88.4047 27.5471L86.72 24.8582L74.3797 67.0457Z" fill="#F9FAFB"/>
<path d="M86.6227 24.1609L86.0616 26.0789L79.5463 48.3484L75.3755 62.6109L74.0658 67.0901H71.6074L76.2519 51.2178L84.1658 24.1609H86.6227Z" fill="#98A2B3"/>
<path d="M74.0656 67.379H71.6087C71.517 67.379 71.4323 67.336 71.3781 67.2637C71.324 67.1915 71.3059 67.0971 71.3323 67.0096L75.9753 51.1374L83.8892 24.0804C83.9254 23.9568 84.0379 23.8721 84.167 23.8721H86.624C86.7156 23.8721 86.8003 23.9151 86.8545 23.9874C86.9087 24.0596 86.9267 24.154 86.9003 24.2415L74.3434 67.1707C74.3073 67.2943 74.1934 67.379 74.0656 67.379ZM71.9934 66.8012H73.849L86.2378 24.4498H84.3823L76.5281 51.2985L71.9934 66.8012Z" fill="#F9FAFB"/>
<path d="M42.2514 5.85281C42.2528 5.82503 42.2528 5.79726 42.2528 5.76948C42.2528 5.75281 42.2514 5.73753 42.25 5.72226C42.2486 5.69726 42.2472 5.67365 42.2444 5.65003C42.2431 5.63337 42.2403 5.6167 42.2375 5.60003C42.2361 5.58475 42.2347 5.56948 42.2319 5.5542C42.2306 5.54865 42.2292 5.54448 42.2292 5.54031C42.2194 5.48753 42.2083 5.43476 42.1931 5.38476C42.1917 5.38198 42.1917 5.3792 42.1917 5.37642C42.1889 5.3667 42.1847 5.35837 42.1819 5.35003C42.1722 5.31948 42.1611 5.28892 42.1486 5.25976C42.1458 5.2542 42.1444 5.24726 42.1417 5.24031C42.1375 5.23198 42.1333 5.22365 42.1292 5.21531C42.1194 5.19309 42.1083 5.17226 42.0972 5.15142C42.0931 5.14309 42.0889 5.13475 42.0847 5.12642C42.0764 5.11253 42.0681 5.09864 42.0597 5.08476L39.9639 1.7417C39.9778 1.76253 39.9889 1.78615 40.0014 1.80837C40.0125 1.8292 40.0236 1.85142 40.0333 1.87226C40.0403 1.88614 40.0472 1.90142 40.0528 1.9167C40.0653 1.94587 40.0764 1.97642 40.0861 2.00698C40.0903 2.01809 40.0944 2.0292 40.0972 2.0417C40.1125 2.0917 40.125 2.14309 40.1333 2.19725C40.1375 2.2167 40.1403 2.23615 40.1431 2.25698C40.1458 2.27365 40.1472 2.29031 40.15 2.30698C40.1528 2.33059 40.1542 2.35559 40.1556 2.3792C40.1569 2.39448 40.1569 2.41115 40.1583 2.42642C40.1583 2.4542 40.1583 2.48198 40.1569 2.50975C40.1569 2.52364 40.1569 2.53614 40.1556 2.55003C40.1528 2.5917 40.1486 2.63476 40.1431 2.67781L39.875 4.64587L41.9708 7.98892L42.2389 6.02087C42.2444 5.97781 42.2486 5.93615 42.2514 5.89309C42.2514 5.88059 42.2514 5.8667 42.2514 5.85281Z" fill="#E4E7EC"/>
<path d="M41.9712 8.27779C41.8726 8.27779 41.7795 8.22779 41.7268 8.14168L39.6309 4.79862C39.5948 4.74168 39.5809 4.67362 39.5893 4.60556L39.8573 2.63751C39.8615 2.60279 39.8656 2.56668 39.867 2.53195V2.50001C39.8684 2.4764 39.8684 2.45279 39.8684 2.43057L39.867 2.40556C39.867 2.40418 39.8656 2.39168 39.8656 2.39029C39.8643 2.37084 39.8643 2.3514 39.8615 2.33195L39.8559 2.29446C39.8531 2.2764 39.8504 2.25973 39.849 2.24445C39.8406 2.20001 39.8309 2.15835 39.8198 2.12223L39.8101 2.09584C39.8018 2.07223 39.7934 2.04862 39.7837 2.02501L39.7684 1.99168C39.7615 1.97501 39.7531 1.95834 39.7434 1.94307L39.7365 1.93057C39.7295 1.91807 39.7226 1.90556 39.7156 1.89306V1.89168C39.6309 1.75696 39.6712 1.57779 39.8073 1.49307C39.942 1.40835 40.1212 1.44862 40.2059 1.58334L42.3018 4.9264C42.3129 4.94307 42.3226 4.95973 42.3323 4.97779C42.3393 4.99029 42.3448 5.0014 42.3504 5.01251C42.3629 5.03612 42.3768 5.06251 42.3893 5.09029C42.3934 5.09862 42.399 5.10973 42.4045 5.12084C42.4073 5.12779 42.4143 5.14584 42.417 5.15418C42.4281 5.18057 42.442 5.21668 42.4545 5.25418C42.4587 5.26251 42.4629 5.27362 42.4656 5.28612C42.467 5.29307 42.4698 5.3014 42.4712 5.30835C42.4851 5.35557 42.499 5.4139 42.5115 5.47501C42.5143 5.48473 42.5156 5.49307 42.517 5.50279C42.5198 5.51529 42.5212 5.52917 42.5226 5.54306L42.2379 5.59446L42.5254 5.56807C42.5281 5.58334 42.5295 5.60001 42.5309 5.61668C42.5337 5.64446 42.5351 5.67362 42.5365 5.70279C42.5379 5.72918 42.5393 5.74307 42.5393 5.75834C42.5393 5.79307 42.5393 5.82501 42.5379 5.85834V5.85973V5.86945C42.5379 5.88195 42.5379 5.89307 42.5365 5.90557C42.5337 5.95418 42.5295 6.00418 42.5226 6.05418L42.2573 8.02779C42.2406 8.14862 42.1504 8.24584 42.0323 8.27084C42.0115 8.2764 41.9906 8.27779 41.9712 8.27779ZM40.1754 4.58056L41.792 7.15973L41.9531 5.98195C41.9573 5.94723 41.9615 5.91112 41.9629 5.8764L41.9643 5.84306C41.9656 5.82084 41.9656 5.79723 41.9656 5.77501L41.9629 5.73612C41.9615 5.71668 41.9615 5.69723 41.9587 5.67779L41.9504 5.60696C41.949 5.60001 41.9476 5.59307 41.9462 5.58473C41.9393 5.54584 41.9295 5.50418 41.9184 5.46668C41.9184 5.4639 41.917 5.46251 41.917 5.45973C41.9143 5.45418 41.9129 5.44723 41.9101 5.44029C41.9018 5.41668 41.8934 5.39307 41.8837 5.37084C41.8823 5.36668 41.8795 5.35973 41.8768 5.35279C41.874 5.34723 41.8698 5.3389 41.8684 5.33612C41.8615 5.32084 41.8531 5.30418 41.8448 5.2889C41.842 5.28473 41.8337 5.26807 41.8323 5.2639L41.817 5.2389L40.3976 2.97362L40.1754 4.58056Z" fill="#F9FAFB"/>
<path d="M39.0686 1.24438C39.7699 1.24438 40.2519 1.88605 40.1436 2.67772L39.8755 4.64577L38.6644 13.5347C38.5561 14.3277 37.9005 14.968 37.1991 14.968H34.8422C34.1408 14.968 33.6588 14.3263 33.7672 13.5347L34.9783 4.64577L35.2463 2.67772C35.3547 1.88466 36.0102 1.24438 36.7116 1.24438H39.0686Z" fill="#F7F9FC"/>
<path d="M37.1978 15.257H34.8408C34.4478 15.257 34.0894 15.0958 33.8339 14.8028C33.5408 14.4681 33.4116 13.9917 33.4797 13.4958L34.9589 2.6389C35.088 1.69446 35.8575 0.955566 36.7103 0.955566H39.0672C39.4603 0.955566 39.8186 1.11668 40.0741 1.40974C40.3672 1.74446 40.4964 2.22085 40.4283 2.71668L38.9491 13.5736C38.8214 14.5181 38.0519 15.257 37.1978 15.257ZM36.7116 1.53334C36.1505 1.53334 35.6214 2.0639 35.5325 2.71668L34.0533 13.5736C34.0089 13.9042 34.088 14.2139 34.27 14.4222C34.4172 14.5903 34.6144 14.6792 34.8422 14.6792H37.1991C37.7603 14.6792 38.2894 14.1486 38.3783 13.4958L39.8575 2.6389C39.9019 2.30835 39.8228 2.00001 39.6408 1.79029C39.4936 1.62223 39.2964 1.53334 39.0686 1.53334H36.7116Z" fill="#F9FAFB"/>
<path d="M27.7665 24.161H23.154C22.8165 24.161 22.5054 24.0874 22.229 23.9527C22.1498 23.9138 22.0748 23.8708 22.0012 23.8235C21.8554 23.7277 21.722 23.6138 21.604 23.4833C21.5151 23.386 21.4345 23.2791 21.3623 23.1638L23.4581 26.5069C23.8415 27.118 24.479 27.5041 25.2498 27.5041H29.8623L27.7665 24.161Z" fill="#D0D5DD"/>
<path d="M29.8625 27.7931H25.25C24.407 27.7931 23.6653 27.3806 23.2139 26.6597L21.1195 23.3181C21.1195 23.3181 21.1195 23.3181 21.1195 23.3167C21.0347 23.1819 21.075 23.0028 21.2111 22.9181C21.3459 22.8333 21.525 22.8736 21.6097 23.0097C21.6722 23.1097 21.7431 23.2028 21.8209 23.2875C21.9236 23.4 22.0389 23.4986 22.1625 23.5806C22.225 23.6222 22.2903 23.6597 22.3584 23.6917C22.6028 23.8111 22.8709 23.8708 23.157 23.8708H27.7695C27.8695 23.8708 27.9611 23.9222 28.0139 24.0069L30.1097 27.35C30.1653 27.4389 30.1681 27.5514 30.1181 27.6431C30.0639 27.7361 29.9681 27.7931 29.8625 27.7931ZM22.4459 24.3472L23.7028 26.3542C24.0459 26.9014 24.6097 27.2167 25.2486 27.2167H29.3389L27.6056 24.4514H23.1528C22.9084 24.45 22.6709 24.4153 22.4459 24.3472Z" fill="#F9FAFB"/>
<path d="M83.309 5.85273C83.3104 5.82495 83.3104 5.79718 83.3104 5.7694C83.3104 5.75273 83.309 5.73746 83.3076 5.72079C83.3062 5.69718 83.3048 5.67218 83.3021 5.64857C83.3007 5.6319 83.2979 5.61523 83.2951 5.59857C83.2937 5.58329 83.2923 5.56801 83.2896 5.55412C83.2882 5.54857 83.2868 5.5444 83.2868 5.53884C83.2771 5.48606 83.266 5.43468 83.2507 5.38468C83.2493 5.3819 83.2493 5.37912 83.2493 5.37634C83.2465 5.36801 83.2423 5.35968 83.2396 5.34996C83.2298 5.3194 83.2187 5.28884 83.2062 5.25968C83.2034 5.25412 83.2021 5.24718 83.1993 5.24023C83.1951 5.2319 83.191 5.22357 83.1868 5.21523C83.1771 5.19301 83.166 5.17218 83.1548 5.14995C83.1507 5.14162 83.1465 5.13329 83.1423 5.12496C83.134 5.11107 83.1257 5.09718 83.1173 5.08329L81.0215 1.74023C81.0354 1.76107 81.0465 1.78468 81.059 1.8069C81.0701 1.82773 81.0812 1.84995 81.091 1.87218C81.0979 1.88607 81.1048 1.90134 81.1104 1.91662C81.1229 1.94579 81.134 1.97634 81.1437 2.00829C81.1479 2.0194 81.1521 2.03051 81.1548 2.04162C81.1701 2.09162 81.1826 2.14301 81.1909 2.19718C81.1951 2.21662 81.1979 2.23607 81.2007 2.2569C81.2034 2.27357 81.2048 2.29023 81.2076 2.3069C81.2104 2.33051 81.2118 2.35551 81.2132 2.37912C81.2146 2.39579 81.216 2.41107 81.216 2.42773C81.216 2.45551 81.216 2.48329 81.2146 2.51107C81.2146 2.52495 81.2146 2.53884 81.2132 2.55273C81.2104 2.5944 81.2062 2.63745 81.2007 2.67912L80.9326 4.64718L83.0285 7.99023L83.2965 6.02218C83.3021 5.97912 83.3062 5.93745 83.309 5.89579C83.309 5.88051 83.309 5.86662 83.309 5.85273Z" fill="#E4E7EC"/>
<path d="M83.0269 8.27777C82.9283 8.27777 82.8352 8.22777 82.7824 8.14166L80.6866 4.79861C80.6505 4.74166 80.6366 4.6736 80.6449 4.60555L80.913 2.6375C80.9171 2.60277 80.9213 2.56666 80.9227 2.53333V2.5C80.9241 2.47639 80.9241 2.45416 80.9241 2.43194L80.9213 2.39305C80.9199 2.3736 80.9199 2.35416 80.9171 2.3361L80.9144 2.30833C80.9102 2.28055 80.9088 2.26389 80.906 2.24861C80.8991 2.20694 80.8894 2.16527 80.8769 2.12639C80.8769 2.125 80.8685 2.10416 80.8685 2.10277C80.8602 2.07777 80.8519 2.05416 80.8421 2.03055C80.838 2.01944 80.8324 2.00972 80.8283 1.99861C80.8199 1.98055 80.8116 1.96388 80.8033 1.94722C80.7921 1.925 80.7838 1.9111 80.7755 1.89722C80.6908 1.76249 80.7324 1.58333 80.8671 1.49999C81.0019 1.41527 81.1796 1.45694 81.2658 1.59166L83.3616 4.93472C83.3727 4.95277 83.3824 4.96944 83.3935 4.98749C83.3977 4.99583 83.4046 5.00694 83.4102 5.01944C83.4227 5.04305 83.4366 5.06944 83.4491 5.09722C83.4546 5.10694 83.4602 5.11805 83.4644 5.12916C83.4671 5.13611 83.4741 5.15277 83.4755 5.15972C83.488 5.18888 83.5019 5.22638 83.5144 5.26388C83.5171 5.27083 83.5213 5.28194 83.5255 5.29305C83.5269 5.29861 83.5296 5.30694 83.531 5.31527C83.5463 5.36388 83.5588 5.42083 83.5713 5.48333C83.5727 5.49027 83.5741 5.49722 83.5755 5.50416C83.5783 5.5236 83.581 5.53888 83.5824 5.55277C83.5866 5.58333 83.5894 5.60277 83.5908 5.62222C83.5935 5.65138 83.5949 5.68055 83.5963 5.70972C83.5977 5.73333 83.5991 5.75 83.5991 5.76805C83.5991 5.79861 83.5991 5.83194 83.5977 5.86389V5.8736C83.5977 5.88611 83.5977 5.89999 83.5963 5.91249C83.5935 5.9611 83.5894 6.01111 83.5824 6.06111L83.313 8.02777C83.2963 8.14861 83.206 8.24583 83.088 8.27083C83.0671 8.27638 83.0477 8.27777 83.0269 8.27777ZM81.2324 4.58055L82.8491 7.15972L83.0102 5.98194C83.0144 5.94722 83.0185 5.9111 83.0199 5.87777V5.84444V5.84305C83.0213 5.82083 83.0213 5.79861 83.0213 5.77639L83.0199 5.75138C83.0199 5.74999 83.0185 5.7375 83.0185 5.7375C83.0171 5.71805 83.0171 5.69861 83.0144 5.68055L83.006 5.61666C83.006 5.61527 83.0046 5.60555 83.0019 5.59583C82.9935 5.5486 82.9838 5.50833 82.9727 5.47083C82.9727 5.46944 82.9713 5.46666 82.9713 5.46527C82.9685 5.45833 82.9658 5.45138 82.9644 5.44444C82.956 5.41944 82.9477 5.39583 82.938 5.37361C82.9366 5.37083 82.9338 5.36388 82.9324 5.35694C82.9283 5.34999 82.9241 5.34027 82.9227 5.3375C82.9158 5.32222 82.9074 5.30555 82.8991 5.28888C82.8963 5.28472 82.8894 5.26944 82.888 5.26527C82.8838 5.25833 82.8783 5.24861 82.8713 5.2375L81.4519 2.97222L81.2324 4.58055Z" fill="#F9FAFB"/>
<path d="M80.1242 1.24438C80.8256 1.24438 81.3089 1.88605 81.2006 2.67772L80.9325 4.64577L79.7214 13.5347C79.6131 14.3277 78.9562 14.968 78.2548 14.968H75.8978C75.1964 14.968 74.7145 14.3263 74.8228 13.5347L76.0339 4.64577L76.302 2.67772C76.4103 1.88466 77.0673 1.24438 77.7673 1.24438H80.1242Z" fill="#F7F9FC"/>
<path d="M78.2534 15.2569H75.8965C75.5034 15.2569 75.1451 15.0958 74.8895 14.8013C74.5965 14.4666 74.4673 13.9902 74.5354 13.4944L76.0145 2.63743C76.1409 1.70966 76.927 0.954102 77.7659 0.954102H80.1229C80.5159 0.954102 80.8743 1.11521 81.1312 1.40966C81.4243 1.74438 81.5534 2.22077 81.4854 2.7166L80.0062 13.5735C79.8784 14.518 79.1076 15.2569 78.2534 15.2569ZM77.7673 1.53327C77.2159 1.53327 76.6756 2.07494 76.5881 2.7166L75.109 13.5735C75.0645 13.9027 75.1437 14.2124 75.3256 14.4222C75.4729 14.5902 75.6701 14.6791 75.8979 14.6791H78.2548C78.8076 14.6791 79.3479 14.1374 79.4354 13.4958L80.9145 2.63882C80.959 2.30966 80.8798 1.99993 80.6979 1.79021C80.5506 1.62216 80.3534 1.53327 80.1256 1.53327H77.7673Z" fill="#F9FAFB"/>
<path d="M84.1652 24.1609L86.2596 27.5039H29.8624L27.7666 24.1609H84.1652Z" fill="#1D2739"/>
<path d="M86.2599 27.7929H29.8627C29.7627 27.7929 29.671 27.7415 29.6182 27.6568L27.5224 24.3137C27.4668 24.2249 27.464 24.1123 27.514 24.0207C27.5654 23.929 27.6613 23.8721 27.7668 23.8721H84.164C84.264 23.8721 84.3557 23.9235 84.4085 24.0082L86.5043 27.3512C86.5599 27.4401 86.5627 27.5526 86.5127 27.6443C86.4627 27.736 86.3654 27.7929 86.2599 27.7929ZM30.0224 27.2151H85.7377L84.0043 24.4498H28.289L30.0224 27.2151Z" fill="#F9FAFB"/>
<path d="M94.3673 10.5209C94.3686 10.4654 94.3714 10.4098 94.37 10.3556C94.37 10.3237 94.3673 10.2918 94.3659 10.2598C94.3631 10.2112 94.3603 10.1626 94.3561 10.114C94.3534 10.0806 94.3478 10.0487 94.3436 10.0154C94.3395 9.98481 94.3367 9.95425 94.3325 9.92509C94.3298 9.90842 94.3256 9.89175 94.3228 9.87509C94.3186 9.85147 94.3145 9.82925 94.3089 9.80703C94.2978 9.75425 94.2853 9.70287 94.2714 9.65148C94.2659 9.63203 94.2617 9.61398 94.2561 9.59453C94.2534 9.5862 94.252 9.57925 94.2492 9.57092C94.2436 9.55286 94.2353 9.5362 94.2298 9.51814C94.2089 9.45703 94.1867 9.39592 94.1617 9.3362C94.1561 9.3237 94.1534 9.30981 94.1478 9.2987C94.1409 9.28203 94.1311 9.26537 94.1228 9.2487C94.102 9.20426 94.0811 9.1612 94.0575 9.11953C94.0492 9.10286 94.0423 9.0862 94.0325 9.07092C94.0159 9.04314 93.9992 9.01537 93.9825 8.98759L91.8867 5.64453C91.9131 5.68759 91.9367 5.73203 91.9617 5.77786C91.9839 5.81953 92.0061 5.86398 92.027 5.90703C92.0409 5.9362 92.0534 5.96536 92.0659 5.99453C92.0909 6.05286 92.1131 6.11398 92.1339 6.17648C92.1423 6.20148 92.152 6.22648 92.1603 6.25287C92.1659 6.27231 92.17 6.29037 92.1756 6.30981C92.1895 6.3612 92.202 6.41259 92.2131 6.46537C92.2173 6.48759 92.2228 6.5112 92.227 6.53342C92.2353 6.57925 92.2423 6.62648 92.2492 6.67509C92.2534 6.70842 92.2589 6.74037 92.2617 6.7737C92.2659 6.82092 92.2686 6.86953 92.2714 6.91953C92.2728 6.95147 92.2756 6.98342 92.2756 7.01536C92.277 7.06953 92.2756 7.12509 92.2728 7.18064C92.2714 7.20842 92.2728 7.23481 92.2714 7.26259C92.2659 7.34592 92.2589 7.43064 92.2464 7.51676L90.3686 21.2959C90.3561 21.3834 90.3395 21.4709 90.3214 21.557C90.3159 21.5793 90.3117 21.6015 90.3061 21.6251C90.2881 21.7015 90.2673 21.7779 90.2436 21.8529C90.2409 21.8612 90.2381 21.8709 90.2353 21.8793C90.2089 21.9612 90.1784 22.0418 90.1464 22.1223C90.1381 22.1431 90.1298 22.164 90.12 22.1848C90.0923 22.2515 90.0617 22.3168 90.0298 22.3806C90.0228 22.3945 90.0159 22.4098 90.0089 22.4237C89.9936 22.4543 89.9742 22.4834 89.9575 22.514C89.9242 22.5751 89.8909 22.6348 89.8534 22.6931C89.8298 22.732 89.8034 22.7681 89.7784 22.8056C89.7492 22.8473 89.7214 22.889 89.6909 22.9293C89.6617 22.9681 89.6298 23.0056 89.5992 23.0431C89.5714 23.0765 89.545 23.1112 89.5159 23.1431C89.4825 23.1806 89.4478 23.2168 89.4117 23.2529C89.3839 23.282 89.3561 23.3126 89.327 23.3404C89.2923 23.3751 89.2548 23.4056 89.2173 23.439C89.1853 23.4668 89.1548 23.4959 89.1228 23.5223C89.0895 23.5501 89.0548 23.5737 89.02 23.6001C88.9811 23.6293 88.9409 23.6598 88.9006 23.6876C88.8714 23.707 88.8409 23.7251 88.8103 23.7431C88.7575 23.7765 88.7061 23.8084 88.652 23.8376C88.5867 23.8737 88.5214 23.9084 88.4534 23.9376C88.4534 23.9376 88.4534 23.9376 88.452 23.9376C88.3825 23.9681 88.3117 23.9959 88.2395 24.0209C88.2117 24.0306 88.1839 24.039 88.1548 24.0487C88.1048 24.064 88.0534 24.0793 88.002 24.0918C87.9728 24.0987 87.9436 24.1056 87.9145 24.1126C87.8603 24.1237 87.8061 24.132 87.7506 24.1404C87.7256 24.1445 87.6992 24.1487 87.6742 24.1515C87.5936 24.1598 87.5131 24.1654 87.4325 24.1654H86.62H84.1631L86.2589 27.5084H88.7159H89.5284C89.6089 27.5084 89.6895 27.5029 89.77 27.4945C89.7964 27.4918 89.8214 27.4876 89.8464 27.4834C89.9006 27.4765 89.9561 27.4668 90.0103 27.4556C90.0395 27.4501 90.0686 27.4431 90.0978 27.4348C90.1492 27.4223 90.2006 27.4084 90.2506 27.3918C90.2784 27.3834 90.3075 27.3737 90.3353 27.364C90.3506 27.3584 90.3659 27.3556 90.3798 27.3501C90.4367 27.3293 90.4923 27.3056 90.5478 27.282C90.5478 27.282 90.5478 27.282 90.5492 27.282C90.6048 27.257 90.6603 27.2306 90.7145 27.2015C90.7256 27.1959 90.7367 27.1876 90.7478 27.182C90.802 27.1529 90.8534 27.1209 90.9061 27.0876C90.9298 27.0737 90.9534 27.0612 90.9756 27.0459C90.9825 27.0418 90.9895 27.0362 90.995 27.0306C91.0353 27.0029 91.0742 26.9737 91.1131 26.9431C91.1423 26.9223 91.1714 26.9029 91.1992 26.8793C91.2048 26.8751 91.2103 26.8695 91.2159 26.864C91.2478 26.8376 91.2784 26.8084 91.3103 26.7806C91.3409 26.7543 91.3714 26.7293 91.4006 26.7015C91.4075 26.6959 91.4131 26.689 91.42 26.682C91.4492 26.6543 91.477 26.6237 91.5048 26.5945C91.5325 26.5668 91.5603 26.539 91.5881 26.5098C91.595 26.5015 91.602 26.4931 91.6089 26.4848C91.6381 26.4529 91.6645 26.4181 91.6923 26.3848C91.7159 26.3556 91.7409 26.3293 91.7631 26.3001C91.77 26.2904 91.777 26.2806 91.7839 26.2709C91.8145 26.2306 91.8423 26.189 91.87 26.1473C91.8895 26.1181 91.9117 26.0918 91.9298 26.0626C91.9353 26.0543 91.9395 26.0445 91.945 26.0362C91.9811 25.9779 92.0159 25.9181 92.0492 25.857C92.0631 25.832 92.0784 25.8098 92.0909 25.7848C92.0936 25.7793 92.0964 25.7723 92.0992 25.7668C92.1061 25.7529 92.1131 25.7376 92.12 25.7237C92.152 25.6598 92.1825 25.5945 92.2103 25.5279C92.2186 25.507 92.2284 25.4862 92.2367 25.4654C92.2423 25.4501 92.2506 25.4348 92.2561 25.4195C92.2811 25.3543 92.3048 25.289 92.3256 25.2223C92.3284 25.214 92.3311 25.2043 92.3339 25.1959C92.3575 25.1209 92.377 25.0445 92.3964 24.9681C92.402 24.9459 92.4075 24.9237 92.4117 24.9001C92.4298 24.814 92.4464 24.7279 92.4589 24.639L94.3367 10.8598C94.3478 10.7737 94.3561 10.689 94.3617 10.6056C94.3673 10.5751 94.3659 10.5487 94.3673 10.5209Z" fill="#D0D5DD"/>
<path d="M89.531 27.793H86.2601C86.1601 27.793 86.0685 27.7416 86.0157 27.6569L83.9198 24.3139C83.8643 24.225 83.8615 24.1125 83.9115 24.0208C83.9629 23.9291 84.0587 23.8722 84.1643 23.8722H87.4351C87.499 23.8722 87.5685 23.868 87.6476 23.8597C87.6601 23.8583 87.6712 23.8569 87.6837 23.8541L87.7143 23.85C87.7629 23.843 87.8101 23.8361 87.8587 23.8264C87.8851 23.8208 87.9101 23.8153 87.9351 23.8083C87.981 23.7972 88.0254 23.7847 88.0698 23.7708C88.1004 23.7611 88.1226 23.7541 88.1448 23.7472C88.2212 23.7208 88.2809 23.6972 88.3351 23.6736C88.3365 23.6736 88.3379 23.6722 88.3379 23.6722C88.3976 23.6458 88.4559 23.6153 88.5129 23.5833C88.5615 23.5569 88.6087 23.5278 88.6559 23.4972L88.6907 23.4764C88.7059 23.4666 88.7212 23.4569 88.7365 23.4472C88.7657 23.4278 88.7934 23.4055 88.8226 23.3847L88.8782 23.343C88.899 23.3278 88.9198 23.3125 88.9393 23.2972C88.9587 23.2805 88.9782 23.2639 88.9976 23.2472L89.049 23.2028C89.0754 23.1805 89.1018 23.1569 89.1268 23.1333C89.1448 23.1153 89.1643 23.0958 89.1823 23.0764L89.2157 23.0416C89.2448 23.0125 89.2726 22.9833 89.3004 22.9528C89.3212 22.9291 89.3407 22.9055 89.3587 22.8819L89.3768 22.8597C89.4115 22.818 89.4365 22.7875 89.4601 22.7541C89.4837 22.7222 89.5059 22.6903 89.5282 22.6569L89.5559 22.6153C89.574 22.5903 89.5921 22.5639 89.6087 22.5375C89.6421 22.4833 89.674 22.4291 89.7046 22.3736L89.7268 22.3347C89.7351 22.3208 89.7434 22.3069 89.7504 22.2916L89.7698 22.2514C89.799 22.193 89.8268 22.1333 89.8518 22.0722L89.8754 22.0153C89.9073 21.9347 89.9351 21.8611 89.9559 21.793C89.9559 21.7903 89.9615 21.7722 89.9629 21.7694C89.9851 21.6986 90.0032 21.6291 90.0198 21.5583L90.0337 21.4972C90.0532 21.4055 90.0671 21.3305 90.0768 21.2583L91.9546 7.47914C91.9643 7.40414 91.9726 7.32636 91.9768 7.2472C91.9768 7.2347 91.9782 7.22081 91.9782 7.20831V7.1722C91.9796 7.12081 91.9809 7.07081 91.9809 7.02081C91.9809 7.00136 91.9796 6.98331 91.9782 6.96386L91.9768 6.93609C91.974 6.89025 91.9726 6.8472 91.9684 6.80414C91.9657 6.78053 91.9629 6.75692 91.9587 6.73331L91.9559 6.71664C91.9504 6.67358 91.9448 6.63192 91.9365 6.59025C91.9323 6.56942 91.9282 6.54997 91.924 6.52914C91.9143 6.48192 91.9018 6.43608 91.8893 6.39025L91.8754 6.33886C91.8726 6.32775 91.8684 6.31664 91.8643 6.30553L91.8532 6.27358C91.8351 6.21803 91.8143 6.16386 91.7934 6.11109C91.7823 6.0847 91.7712 6.0597 91.7587 6.0347C91.7407 5.99581 91.7212 5.95692 91.7004 5.91942L91.6907 5.90136C91.6726 5.86803 91.6546 5.8347 91.6351 5.80275C91.5504 5.66803 91.5921 5.48886 91.7268 5.40414C91.8629 5.31942 92.0407 5.35969 92.1254 5.49581L94.2212 8.83886C94.2407 8.86942 94.2587 8.90136 94.2768 8.93331C94.2851 8.94858 94.2934 8.96386 94.3004 8.97914C94.3309 9.03609 94.3546 9.0847 94.3782 9.1347C94.3907 9.15831 94.399 9.17497 94.4059 9.19164C94.4115 9.20275 94.4171 9.21803 94.4212 9.23331C94.449 9.29858 94.4726 9.36525 94.4962 9.4347C94.5059 9.4597 94.5129 9.47636 94.5184 9.49303C94.5198 9.49719 94.524 9.51386 94.5254 9.51803L94.5421 9.58053C94.5573 9.63747 94.5712 9.69442 94.5837 9.75275C94.5893 9.77914 94.5948 9.80275 94.599 9.82775L94.6018 9.84303C94.6046 9.85692 94.6073 9.87081 94.6101 9.8847C94.6143 9.90692 94.6171 9.93053 94.6198 9.95553L94.6268 10.0083C94.6309 10.0361 94.6337 10.0639 94.6379 10.093C94.6434 10.1444 94.6462 10.1986 94.649 10.2514L94.6504 10.2791C94.6518 10.3055 94.6532 10.3305 94.6546 10.3569C94.6559 10.4153 94.6546 10.475 94.6518 10.5361C94.6518 10.5361 94.6518 10.5361 94.6518 10.5375V10.5653C94.6518 10.5861 94.6518 10.6069 94.6504 10.6278C94.6448 10.7222 94.6365 10.8153 94.624 10.9041L92.7462 24.6833C92.7351 24.768 92.7184 24.8583 92.6948 24.9666C92.6893 24.9916 92.6837 25.0166 92.6782 25.0416C92.6587 25.1236 92.6365 25.2055 92.6115 25.2875L92.6032 25.318C92.5809 25.3889 92.5559 25.4597 92.5282 25.5305C92.524 25.543 92.5184 25.5541 92.5143 25.5653L92.4837 25.6403C92.4504 25.7194 92.4171 25.7903 92.3823 25.8597L92.349 25.9264C92.3393 25.9444 92.3282 25.9639 92.3171 25.9819L92.3046 26.0041C92.2684 26.0694 92.2309 26.1347 92.1921 26.1972C92.1865 26.2069 92.1809 26.218 92.174 26.2278C92.1615 26.2486 92.1462 26.2694 92.1309 26.2903L92.099 26.3361C92.0726 26.375 92.0448 26.4139 92.0171 26.4514C92.0087 26.4639 92.0018 26.4736 91.9948 26.4833C91.9782 26.5055 91.9601 26.525 91.9434 26.5458L91.9032 26.5944C91.8796 26.6236 91.8546 26.6541 91.8296 26.6819C91.8212 26.693 91.8143 26.7014 91.8073 26.7097C91.7865 26.7333 91.7657 26.7541 91.7434 26.775L91.6948 26.825C91.6712 26.8486 91.649 26.8736 91.624 26.8958C91.6185 26.9014 91.6115 26.9097 91.6032 26.9166C91.5809 26.9375 91.5587 26.9569 91.5351 26.9764L91.4809 27.0236C91.4546 27.0472 91.4296 27.0694 91.4018 27.0916C91.3976 27.0958 91.3907 27.1014 91.3837 27.1069C91.3615 27.125 91.3407 27.1403 91.3184 27.1555L91.2657 27.1944C91.2309 27.2208 91.1962 27.2472 91.1601 27.2708C91.1546 27.275 91.1462 27.2819 91.1365 27.2875C91.1198 27.2986 91.1004 27.3097 91.0809 27.3208L91.0615 27.3319C91.0046 27.368 90.9476 27.4028 90.8879 27.4347C90.8754 27.443 90.8643 27.45 90.8518 27.4555C90.7907 27.4875 90.7296 27.5166 90.6685 27.5444C90.6671 27.5444 90.6657 27.5458 90.6643 27.5458C90.6046 27.5722 90.5434 27.5972 90.4809 27.6208C90.4684 27.625 90.4546 27.6305 90.4407 27.6347C90.4032 27.6472 90.374 27.6569 90.3448 27.6653C90.2823 27.6847 90.2254 27.7 90.1684 27.7153C90.1365 27.7236 90.1046 27.7305 90.0712 27.7375C90.0115 27.75 89.9504 27.7597 89.8879 27.768L89.8643 27.7708C89.8434 27.7736 89.8226 27.7778 89.8004 27.7791C89.7046 27.7875 89.6157 27.793 89.531 27.793ZM86.4212 27.2153H89.531C89.5948 27.2153 89.6643 27.2111 89.7434 27.2028C89.7559 27.2014 89.7684 27.2 89.7796 27.1972L89.8101 27.193C89.8587 27.1861 89.9059 27.1791 89.9546 27.1694C89.9809 27.1639 90.0059 27.1583 90.0309 27.1514C90.0768 27.1403 90.1212 27.1278 90.1671 27.1139C90.1962 27.1041 90.2198 27.0972 90.2421 27.0903L90.274 27.0805C90.3337 27.0597 90.3823 27.0389 90.4323 27.0166C90.4337 27.0166 90.4351 27.0153 90.4351 27.0153C90.4837 26.993 90.5337 26.9694 90.5809 26.9444C90.5893 26.9389 90.6004 26.9319 90.6101 26.9264C90.6587 26.9 90.7059 26.8708 90.7532 26.8416C90.7671 26.8333 90.7809 26.825 90.7948 26.8166C90.8018 26.8125 90.8101 26.8083 90.8171 26.8041C90.8198 26.8014 90.8268 26.7958 90.8337 26.7916C90.8629 26.7722 90.8893 26.7514 90.9171 26.7305L90.9837 26.6819C90.9962 26.6722 91.0087 26.6639 91.0212 26.6541L91.0365 26.6403C91.0573 26.6236 91.0754 26.6069 91.0948 26.5903L91.1601 26.5333C91.1754 26.5208 91.1907 26.5069 91.2059 26.493C91.2087 26.4903 91.2184 26.4791 91.2226 26.4764C91.2421 26.4583 91.2587 26.4403 91.2768 26.4222L91.3351 26.3625C91.349 26.3486 91.3643 26.3333 91.3768 26.3194C91.3837 26.3111 91.3893 26.3028 91.3962 26.2958C91.4157 26.2736 91.4351 26.25 91.4546 26.2264L91.5046 26.1666C91.5157 26.1541 91.5268 26.1403 91.5379 26.1264C91.5434 26.1166 91.5504 26.1083 91.5559 26.1C91.5796 26.068 91.6018 26.0361 91.624 26.0041L91.6657 25.9458C91.674 25.9333 91.6837 25.9222 91.6921 25.9083C91.6962 25.9 91.7018 25.8916 91.7073 25.8833C91.7407 25.8305 91.7712 25.775 91.8032 25.7194C91.8115 25.7055 91.8198 25.6916 91.8268 25.6778C91.8323 25.6694 91.8365 25.6611 91.8407 25.6528L91.8684 25.5958C91.8976 25.5361 91.9254 25.4764 91.9518 25.4153L91.9934 25.3166C92.0171 25.2569 92.0379 25.1972 92.0573 25.1361L92.0657 25.1083C92.0865 25.043 92.1046 24.9722 92.1212 24.9014C92.1268 24.8805 92.1309 24.8597 92.1351 24.8403C92.1546 24.7472 92.1684 24.6708 92.1782 24.6014L94.0559 10.8222C94.0657 10.7472 94.074 10.6694 94.0782 10.5903C94.0782 10.5778 94.0782 10.5666 94.0796 10.5541L94.081 10.5153C94.0823 10.4653 94.0837 10.4153 94.0837 10.3666C94.0837 10.3472 94.0823 10.3291 94.081 10.3125L94.0796 10.2791C94.0768 10.2361 94.0754 10.1916 94.0712 10.1486C94.0684 10.1264 94.0657 10.1055 94.0629 10.0847L94.0546 10.0194C94.0532 10.0055 94.0518 9.99164 94.049 9.97775L94.0268 9.86942C94.0171 9.82359 94.006 9.77775 93.9935 9.73192L93.9796 9.68053C93.9782 9.67775 93.9754 9.66386 93.974 9.6597C93.9657 9.63886 93.9601 9.62497 93.9559 9.61108C93.9379 9.55831 93.9184 9.50414 93.8962 9.45136C93.8907 9.43886 93.8865 9.42775 93.8823 9.41525C93.8726 9.39719 93.8671 9.38609 93.8615 9.37498C93.8434 9.3347 93.824 9.2972 93.8032 9.2597C93.7962 9.2472 93.7907 9.23608 93.7851 9.22358C93.7671 9.19164 93.7532 9.16664 93.7379 9.14303L92.5601 7.26525C92.5601 7.27081 92.5601 7.27497 92.5587 7.28053C92.5532 7.37497 92.5448 7.46803 92.5323 7.55692L90.6546 21.3361C90.6434 21.4222 90.6254 21.5152 90.6032 21.6194C90.5976 21.643 90.5921 21.668 90.5865 21.6916C90.5671 21.775 90.5448 21.8583 90.5198 21.9389L90.5129 21.9639C90.4851 22.05 90.4546 22.1361 90.4157 22.2305L90.3921 22.2861C90.3573 22.368 90.324 22.4389 90.2907 22.5083L90.2671 22.5569C90.2559 22.5791 90.2434 22.6014 90.2296 22.625L90.2129 22.6541C90.1768 22.7194 90.1407 22.7847 90.1004 22.8472C90.0796 22.8805 90.0573 22.9125 90.0351 22.9444L90.0087 22.9833C89.981 23.0236 89.9546 23.0625 89.9254 23.1014C89.8962 23.1403 89.8657 23.1778 89.8351 23.2153L89.8101 23.2458C89.7865 23.2764 89.7615 23.3055 89.7351 23.3347C89.7032 23.3722 89.6684 23.4069 89.6337 23.443L89.6032 23.475C89.5796 23.5 89.556 23.525 89.531 23.5486C89.499 23.5791 89.4671 23.6083 89.4337 23.6375L89.3879 23.6791C89.3615 23.7028 89.3365 23.725 89.3087 23.7472C89.2823 23.7694 89.2546 23.7903 89.2254 23.8111L89.1754 23.8486C89.1393 23.8764 89.1032 23.9028 89.0657 23.9278C89.0434 23.943 89.0198 23.9583 88.9962 23.9722L88.9684 23.9889C88.9115 24.025 88.8532 24.0597 88.7948 24.093C88.7309 24.1278 88.656 24.168 88.5768 24.2028C88.5726 24.2041 88.5684 24.2069 88.5643 24.2083C88.4934 24.2389 88.424 24.2666 88.3421 24.2958C88.3129 24.3055 88.2851 24.3153 88.256 24.3236C88.1921 24.343 88.1351 24.3597 88.0782 24.3736C88.0462 24.3819 88.0143 24.3889 87.9809 24.3958C87.9198 24.4083 87.8587 24.418 87.7976 24.4264L87.774 24.4291C87.7532 24.4319 87.7323 24.4347 87.7115 24.4375C87.6129 24.4472 87.524 24.4528 87.4393 24.4528H84.6907L86.4212 27.2153Z" fill="#F9FAFB"/>
<path d="M39.7169 37.6958L41.8128 41.0389H25.9044L23.8086 37.6958H39.7169Z" fill="#98A2B3"/>
<path d="M41.813 41.3278H25.9046C25.8046 41.3278 25.713 41.2764 25.6602 41.1917L23.5644 37.8486C23.5088 37.7598 23.506 37.6473 23.556 37.5556C23.6074 37.4639 23.7033 37.407 23.8088 37.407H39.7171C39.8171 37.407 39.9088 37.4584 39.9616 37.5431L42.0574 40.8861C42.113 40.975 42.1158 41.0875 42.0658 41.1792C42.0144 41.2709 41.9185 41.3278 41.813 41.3278ZM26.0644 40.75H41.2908L39.5574 37.9848H24.331L26.0644 40.75Z" fill="#F9FAFB"/>
<path d="M86.2598 27.5042L84.1654 24.1611L76.2584 51.1931L71.6084 67.0903L70.7695 69.957L72.864 73.3L73.7029 70.4334L78.3501 54.5486L86.2598 27.5042Z" fill="#E4E7EC"/>
<path d="M72.9616 73.9985L70.4561 69.9999L76.2033 50.3555L84.0686 23.4624L86.5741 27.461L86.538 27.586L78.6283 54.6305L72.9616 73.9985ZM71.0824 69.9138L72.7672 72.6027L85.9463 27.5485L84.2616 24.8596L76.3144 52.0318L71.0824 69.9138Z" fill="#F9FAFB"/>
<path d="M76.2333 51.2317L71.6083 67.09L70.7694 69.9567H54.1777L76.2333 51.2317Z" fill="#D0D5DD"/>
<path d="M70.7698 70.2457H54.1782C54.0573 70.2457 53.949 70.1707 53.9074 70.0568C53.8657 69.9429 53.899 69.8151 53.9921 69.7374L76.0476 51.0124C76.1448 50.9304 76.2851 50.9207 76.3921 50.9901C76.499 51.0596 76.5476 51.1915 76.5129 51.3137L71.8879 67.1721L71.049 70.0401C71.0101 70.161 70.8976 70.2457 70.7698 70.2457ZM54.9643 69.6679H70.5518L71.3296 67.0082L75.6851 52.0749L54.9643 69.6679Z" fill="#F9FAFB"/>
<path d="M27.7669 24.1609H84.1655L76.2516 51.2178L59.6558 51.2317L54.178 69.9567H14.3711L17.11 60.5942H33.0183L39.7169 37.6956H23.8086L27.7669 24.1609Z" fill="#F7F9FC"/>
<path d="M54.1783 70.2457H14.3714C14.2797 70.2457 14.195 70.2026 14.1408 70.1304C14.0867 70.0582 14.0686 69.9637 14.095 69.8762L16.8339 60.5137C16.87 60.3901 16.9825 60.3054 17.1117 60.3054H32.8033L39.3325 37.9846H23.8089C23.7172 37.9846 23.6325 37.9415 23.5783 37.8693C23.5242 37.7971 23.5061 37.7026 23.5325 37.6151L27.4922 24.0804C27.5283 23.9568 27.6408 23.8721 27.77 23.8721H84.1672C84.2589 23.8721 84.3436 23.9151 84.3978 23.9874C84.4519 24.0596 84.47 24.154 84.4436 24.2415L76.5297 51.2985C76.4936 51.4221 76.3811 51.5068 76.2533 51.5068L59.8742 51.5207L54.4575 70.0387C54.42 70.161 54.3061 70.2457 54.1783 70.2457ZM14.7575 69.6679H53.9617L59.3783 51.1498C59.4144 51.0262 59.5269 50.9415 59.6547 50.9415L76.0339 50.9276L83.7783 24.4485H27.9839L24.1936 37.4054H39.7172C39.8089 37.4054 39.8936 37.4485 39.9478 37.5207C40.0019 37.5929 40.02 37.6873 39.9936 37.7748L33.295 60.6735C33.2589 60.7971 33.1464 60.8818 33.0172 60.8818H17.3269L14.7575 69.6679Z" fill="#F9FAFB"/>
<path d="M41.8473 24.0291L41.8084 24.161L41.6959 24.5443L36.9418 40.7957L36.7904 41.311L32.0376 57.5624L31.8862 58.0791L28.4112 69.9568H27.957L31.432 58.0791L31.5834 57.5638L36.3362 41.3124L36.4876 40.7971L41.2418 24.5443L41.3529 24.161L41.3918 24.0291H41.8473Z" fill="#F9FAFB"/>
<path d="M56.6181 24.0139L56.575 24.1611L56.4681 24.5292L51.7139 40.7806L51.5639 41.2959H51.5625L46.8097 57.5486L46.6584 58.0639L43.1792 69.957H42.7236L46.2042 58.0639L46.3542 57.5486L51.1084 41.2972L51.2584 40.782L56.0125 24.5292H56.0139L56.1209 24.1611L56.1625 24.0139H56.6181Z" fill="#F9FAFB"/>
<path d="M71.3908 23.9985L71.3436 24.161L71.2408 24.5138L66.4866 40.7652L66.3366 41.2805L61.5811 57.5333L61.4311 58.0485L57.9477 69.9569H57.4922L60.9769 58.0485L61.1269 57.5333L65.8811 41.2819L66.0325 40.7666L70.7852 24.5152L70.8894 24.161L70.9366 23.9985H71.3908Z" fill="#F9FAFB"/>
<path d="M79.3128 40.7527L79.1614 41.268L66.3364 41.2805L65.8808 41.2819L51.5641 41.2957H51.5628L51.1086 41.2971L36.7905 41.311L36.3364 41.3124L22.7461 41.3263L22.8975 40.811L36.4878 40.7971L36.9419 40.7957L51.2586 40.7819L51.7141 40.7805L66.0322 40.7666L66.4864 40.7652L79.3128 40.7527Z" fill="#F9FAFB"/>
<path d="M74.4085 57.5193L74.2571 58.0346L61.4307 58.0485H60.9765L46.6585 58.0637H46.2043L31.8862 58.079H31.4321L17.8418 58.0929L17.9932 57.5776L31.5835 57.5637L32.0376 57.5623L46.3543 57.5484H46.8099L61.1265 57.5332H61.5807L74.4085 57.5193Z" fill="#F9FAFB"/>
<path d="M70.7697 69.957H54.178H14.3711L16.4669 73.3001H56.2739H72.8642L70.7697 69.957Z" fill="#98A2B3"/>
<path d="M72.8644 73.5889H16.4671C16.3671 73.5889 16.2755 73.5375 16.2227 73.4528L14.1269 70.1111C14.0713 70.0222 14.0685 69.9097 14.1185 69.818C14.1699 69.7264 14.2658 69.6694 14.3713 69.6694H70.7685C70.8685 69.6694 70.9602 69.7208 71.013 69.8055L73.1088 73.1486C73.1644 73.2375 73.1672 73.35 73.1172 73.4417C73.0672 73.5319 72.9699 73.5889 72.8644 73.5889ZM16.6269 73.0111H72.3422L70.6088 70.2458H14.8935L16.6269 73.0111Z" fill="#F9FAFB"/>
<path d="M23.808 37.6958H39.7164L33.0178 60.5944H17.1094H1.18164L7.88025 37.6958H23.808ZM33.1455 44C33.4275 44 33.69 43.743 33.733 43.4264C33.7761 43.1083 33.5844 42.8527 33.3025 42.8527H10.9372C10.6566 42.8527 10.3941 43.1097 10.3511 43.4264C10.308 43.743 10.5011 44 10.7803 44H33.1455ZM31.9261 48.1722C32.208 48.1722 32.4705 47.9152 32.5136 47.5986C32.5566 47.2805 32.365 47.025 32.083 47.025H9.71775C9.4372 47.025 9.1747 47.2819 9.13164 47.5986C9.08858 47.9152 9.28164 48.1722 9.56081 48.1722H31.9261ZM30.7053 52.3458C30.9872 52.3458 31.2497 52.0889 31.2928 51.7722C31.3358 51.4555 31.1427 51.1986 30.8622 51.1986H16.1205C15.8386 51.1986 15.5761 51.4555 15.533 51.7722C15.49 52.0903 15.6816 52.3458 15.9636 52.3458H30.7053Z" fill="#D0D5DD"/>
<path d="M33.018 60.8834H1.18192C1.09026 60.8834 1.00553 60.8403 0.951367 60.7681C0.897201 60.6959 0.879145 60.6014 0.905534 60.5139L7.60414 37.6153C7.64026 37.4917 7.75276 37.407 7.88192 37.407H39.718C39.8097 37.407 39.8944 37.45 39.9486 37.5223C40.0028 37.5945 40.0208 37.6889 39.9944 37.7764L33.2958 60.675C33.2597 60.7986 33.1458 60.8834 33.018 60.8834ZM1.56664 60.3056H32.8014L39.3305 37.9848H8.0972L1.56664 60.3056ZM30.7055 52.6348H15.9639C15.7555 52.6348 15.5653 52.5486 15.4305 52.3931C15.2805 52.2209 15.2139 51.9806 15.2472 51.732C15.3097 51.2709 15.693 50.9098 16.1208 50.9098H30.8611C31.0694 50.9098 31.2597 50.9959 31.3958 51.1514C31.5458 51.3236 31.6125 51.5639 31.5791 51.8111C31.5153 52.2723 31.1319 52.6348 30.7055 52.6348ZM16.1208 51.4875C16 51.4875 15.8458 51.6209 15.8194 51.8111C15.8083 51.8945 15.825 51.9681 15.8653 52.0139C15.8903 52.0431 15.9236 52.057 15.9639 52.057H30.7055C30.8264 52.057 30.9805 51.9236 31.0069 51.732C31.018 51.65 31.0014 51.5764 30.9611 51.5306C30.9361 51.5014 30.9028 51.4875 30.8625 51.4875H16.1208ZM31.9264 48.4611H9.56109C9.35276 48.4611 9.16387 48.375 9.02776 48.2195C8.87776 48.0473 8.81109 47.807 8.84442 47.5598C8.90692 47.0973 9.29026 46.7361 9.71665 46.7361H32.0805C32.2889 46.7361 32.4791 46.8223 32.6139 46.9778C32.7639 47.15 32.8305 47.3903 32.7972 47.6389C32.7361 48.1 32.3528 48.4611 31.9264 48.4611ZM9.71803 47.3139C9.5972 47.3139 9.44442 47.4473 9.41803 47.6389C9.40692 47.7209 9.42359 47.7945 9.46387 47.8403C9.48887 47.8695 9.52081 47.8834 9.56109 47.8834H31.925C32.0458 47.8834 32.2 47.75 32.2264 47.5598C32.2375 47.4764 32.2208 47.4028 32.1805 47.357C32.1555 47.3278 32.1222 47.3139 32.0819 47.3139H9.71803ZM33.1458 44.2889H10.7819C10.5736 44.2889 10.3847 44.2028 10.2486 44.0473C10.0986 43.875 10.0319 43.6348 10.0653 43.3875C10.1278 42.925 10.5111 42.5639 10.9375 42.5639H33.3028C33.5111 42.5639 33.7014 42.65 33.8361 42.8056C33.9861 42.9778 34.0528 43.2181 34.0194 43.4667C33.9569 43.9278 33.5722 44.2889 33.1458 44.2889ZM10.9375 43.1417C10.8166 43.1417 10.6639 43.275 10.6375 43.4667C10.6264 43.5486 10.643 43.6223 10.6833 43.6681C10.7083 43.6973 10.7403 43.7111 10.7805 43.7111H33.1444C33.2653 43.7111 33.4194 43.5778 33.4458 43.3875C33.4569 43.3042 33.4403 43.2306 33.4 43.1848C33.375 43.1556 33.3416 43.1417 33.3014 43.1417H10.9375Z" fill="#F9FAFB"/>
<path d="M33.0187 60.5942H17.1104H1.18262L3.27706 63.9373H19.2062H35.1146L33.0187 60.5942Z" fill="#D0D5DD"/>
<path d="M35.1142 64.2263H3.27672C3.17672 64.2263 3.08505 64.1749 3.03227 64.0901L0.936438 60.7471C0.880882 60.6582 0.878105 60.5457 0.928105 60.454C0.979493 60.3624 1.07533 60.3054 1.18088 60.3054H33.017C33.117 60.3054 33.2087 60.3568 33.2614 60.4415L35.3573 63.7846C35.4128 63.8735 35.4156 63.986 35.3656 64.0776C35.3156 64.1693 35.2184 64.2263 35.1142 64.2263ZM3.43644 63.6485H34.5906L32.8573 60.8832H1.7031L3.43644 63.6485Z" fill="#F9FAFB"/>
<path d="M39.7162 37.6958L41.812 41.0389L35.1134 63.9375L33.0176 60.5944L39.7162 37.6958Z" fill="#D0D5DD"/>
<path d="M35.1138 64.2262C35.0152 64.2262 34.9221 64.1762 34.8694 64.0901L32.7735 60.7471C32.7291 60.6776 32.718 60.5915 32.7416 60.5123L39.4402 37.6137C39.4721 37.504 39.5652 37.4248 39.6777 37.4082C39.7902 37.3929 39.9013 37.4443 39.9624 37.5415L42.0583 40.8846C42.1027 40.954 42.1138 41.0401 42.0902 41.1193L35.3916 64.0179C35.3596 64.1276 35.2666 64.2068 35.1541 64.2235C35.1402 64.2262 35.1263 64.2262 35.1138 64.2262ZM33.3319 60.5512L35.0166 63.2401L41.4985 41.0832L39.8138 38.3943L33.3319 60.5512Z" fill="#F9FAFB"/>
<path d="M76.2333 51.2319L54.1777 69.9569L59.6555 51.2319H76.2333Z" fill="#98A2B3"/>
<path d="M54.1778 70.2458C54.1237 70.2458 54.0681 70.2305 54.0209 70.1986C53.914 70.1292 53.8654 69.9972 53.9015 69.875L59.3792 51.15C59.4154 51.0264 59.5279 50.9417 59.657 50.9417H76.2348C76.3556 50.9417 76.464 51.0167 76.5056 51.1305C76.5473 51.2444 76.514 51.3722 76.4209 51.45L54.3654 70.175C54.3112 70.2236 54.2445 70.2458 54.1778 70.2458ZM59.8723 51.5208L54.7251 69.1125L75.4459 51.5208H59.8723Z" fill="#F9FAFB"/>
<path d="M90.0944 4.64575C91.4972 4.64575 92.4597 5.93047 92.2444 7.5152L90.3666 21.2944C90.1514 22.8777 88.8375 24.1624 87.4347 24.1624H86.6222H84.1653H27.7666H23.1541C21.75 24.1624 20.7875 22.8777 21.0028 21.2944L22.8805 7.5152C23.0972 5.93047 24.4097 4.64575 25.8139 4.64575H34.9778L33.7666 13.5346C33.6583 14.3277 34.1389 14.968 34.8416 14.968H37.1986C37.9 14.968 38.5569 14.3263 38.6639 13.5346L39.875 4.64575H76.0333L74.8222 13.5346C74.7139 14.3277 75.1958 14.968 75.8972 14.968H78.2541C78.9555 14.968 79.6125 14.3263 79.7208 13.5346L80.9319 4.64575H90.0944Z" fill="#98A2B3"/>
<path d="M87.435 24.45H23.1545C22.4517 24.45 21.8142 24.1625 21.3573 23.6389C20.8267 23.0305 20.5934 22.1625 20.717 21.2542L22.5948 7.47499C22.8295 5.75554 24.2725 4.35693 25.8142 4.35693H34.9781C35.0614 4.35693 35.1406 4.39304 35.1962 4.45554C35.2517 4.51804 35.2767 4.60138 35.2642 4.68471L34.0531 13.5736C34.0087 13.9042 34.0878 14.2139 34.2698 14.4222C34.417 14.5903 34.6142 14.6792 34.842 14.6792H37.1989C37.76 14.6792 38.2892 14.1486 38.3781 13.4958L39.5892 4.60693C39.6087 4.46388 39.7309 4.35693 39.8753 4.35693H76.0337C76.117 4.35693 76.1962 4.39304 76.2517 4.45554C76.3059 4.51804 76.3309 4.60138 76.3198 4.68471L75.1087 13.5736C75.0642 13.9028 75.1434 14.2125 75.3253 14.4222C75.4725 14.5903 75.6698 14.6792 75.8975 14.6792H78.2545C78.8073 14.6792 79.3475 14.1375 79.435 13.4958L80.6462 4.60693C80.6656 4.46388 80.7878 4.35693 80.9323 4.35693H90.0962C90.7975 4.35693 91.4351 4.64443 91.892 5.16804C92.4225 5.77638 92.6559 6.64582 92.5323 7.55415L90.6545 21.3333C90.4184 23.0514 88.9753 24.45 87.435 24.45ZM25.8142 4.93471C24.5517 4.93471 23.3642 6.10971 23.167 7.55415L21.2892 21.3333C21.1878 22.075 21.3712 22.7778 21.792 23.2597C22.1378 23.6555 22.6212 23.8736 23.1545 23.8736H87.435C88.6975 23.8736 89.8837 22.7 90.0809 21.2555L91.9587 7.47638C92.06 6.73332 91.8767 6.03054 91.4559 5.5486C91.1114 5.15277 90.6281 4.9361 90.0948 4.9361H81.1837L80.0059 13.575C79.8767 14.5194 79.1073 15.2583 78.2531 15.2583H75.8962C75.5031 15.2583 75.1448 15.0972 74.8892 14.8028C74.5962 14.468 74.467 13.9917 74.535 13.4958L75.7017 4.93471H40.1281L38.9503 13.5736C38.8212 14.518 38.0517 15.2569 37.1989 15.2569H34.842C34.4489 15.2569 34.0906 15.0958 33.835 14.8028C33.542 14.468 33.4128 13.9917 33.4809 13.4958L34.6475 4.93471H25.8142Z" fill="#F9FAFB"/>
<path d="M30.8612 51.1985C31.1431 51.1985 31.3348 51.4554 31.2917 51.7721C31.2487 52.0902 30.9862 52.3457 30.7042 52.3457H15.9639C15.682 52.3457 15.4903 52.0888 15.5334 51.7721C15.5764 51.4554 15.8389 51.1985 16.1209 51.1985H30.8612Z" fill="#98A2B3"/>
<path d="M30.706 52.6347H15.9643C15.756 52.6347 15.5657 52.5486 15.431 52.393C15.281 52.2208 15.2143 51.9805 15.2477 51.7319C15.3102 51.2708 15.6935 50.9097 16.1213 50.9097H30.8616C31.0699 50.9097 31.2602 50.9958 31.3963 51.1513C31.5463 51.3236 31.6129 51.5638 31.5796 51.8111C31.5157 52.2722 31.1324 52.6347 30.706 52.6347ZM16.1213 51.4874C16.0004 51.4874 15.8463 51.6208 15.8199 51.8111C15.8088 51.8944 15.8254 51.968 15.8657 52.0138C15.8907 52.043 15.9241 52.0569 15.9643 52.0569H30.706C30.8268 52.0569 30.981 51.9236 31.0074 51.7319C31.0185 51.6499 31.0018 51.5763 30.9616 51.5305C30.9366 51.5013 30.9032 51.4874 30.8629 51.4874H16.1213Z" fill="#98A2B3"/>
<path d="M33.3037 42.8525C33.5856 42.8525 33.7773 43.1095 33.7343 43.4262C33.6912 43.7428 33.4287 43.9998 33.1468 43.9998H10.7829C10.5023 43.9998 10.3106 43.7428 10.3537 43.4262C10.3968 43.1081 10.6593 42.8525 10.9398 42.8525H33.3037Z" fill="#98A2B3"/>
<path d="M33.1466 44.2887H10.7827C10.5744 44.2887 10.3855 44.2026 10.2494 44.0471C10.0994 43.8748 10.0327 43.6346 10.066 43.3873C10.1285 42.9248 10.5119 42.5637 10.9383 42.5637H33.3021C33.5105 42.5637 33.7008 42.6498 33.8355 42.8054C33.9855 42.9776 34.0521 43.2179 34.0188 43.4665C33.9577 43.9276 33.573 44.2887 33.1466 44.2887ZM10.9383 43.1415C10.8174 43.1415 10.6646 43.2748 10.6383 43.4665C10.6271 43.5484 10.6438 43.6221 10.6841 43.6679C10.7091 43.6971 10.741 43.7109 10.7813 43.7109H33.1452C33.266 43.7109 33.4202 43.5776 33.4466 43.3873C33.4577 43.304 33.441 43.2304 33.4008 43.1846C33.3758 43.1554 33.3424 43.1415 33.3021 43.1415H10.9383Z" fill="#98A2B3"/>
<path d="M32.082 47.0249C32.364 47.0249 32.5556 47.2818 32.5126 47.5985C32.4695 47.9152 32.207 48.1721 31.9251 48.1721H9.56119C9.28063 48.1721 9.08896 47.9152 9.13202 47.5985C9.17507 47.2805 9.43757 47.0249 9.71813 47.0249H32.082Z" fill="#98A2B3"/>
<path d="M31.9263 48.4611H9.56102C9.35268 48.4611 9.16379 48.375 9.02768 48.2194C8.87768 48.0472 8.81102 47.8069 8.84435 47.5597C8.90685 47.0972 9.29018 46.7361 9.71657 46.7361H32.0805C32.2888 46.7361 32.4791 46.8222 32.6138 46.9777C32.7638 47.15 32.8305 47.3903 32.7971 47.6389C32.736 48.1 32.3527 48.4611 31.9263 48.4611ZM9.71796 47.3139C9.59713 47.3139 9.44435 47.4472 9.41796 47.6389C9.40685 47.7208 9.42352 47.7944 9.46379 47.8403C9.48879 47.8694 9.52074 47.8833 9.56102 47.8833H31.9249C32.0457 47.8833 32.1999 47.75 32.2263 47.5597C32.2374 47.4764 32.2207 47.4027 32.1805 47.3569C32.1555 47.3277 32.1221 47.3139 32.0819 47.3139H9.71796Z" fill="#98A2B3"/>
</svg>
