<svg width="42" height="42" viewBox="0 0 42 42" fill="none" xmlns="http://www.w3.org/2000/svg">
<rect width="42" height="42" rx="21" fill="#FCECFF"/>
<path d="M17.4905 25.5285C17.3302 25.0474 16.9527 24.6699 16.4716 24.5095C15.982 24.3463 15.982 23.6538 16.4716 23.4906C16.9527 23.3302 17.3302 22.9527 17.4905 22.4716C17.6537 21.982 18.3463 21.982 18.5095 22.4716C18.6698 22.9527 19.0473 23.3302 19.5284 23.4906C20.018 23.6538 20.018 24.3463 19.5284 24.5095C19.0473 24.6699 18.6698 25.0474 18.5095 25.5285C18.3463 26.0181 17.6537 26.0181 17.4905 25.5285Z" fill="#AB30A3"/>
<path fill-rule="evenodd" clip-rule="evenodd" d="M18.431 19.1438C18.3941 18.8926 18.375 18.6359 18.375 18.375C18.375 15.4755 20.7255 13.125 23.625 13.125C26.5245 13.125 28.875 15.4755 28.875 18.375C28.875 21.2745 26.5245 23.625 23.625 23.625C23.3641 23.625 23.1074 23.6059 22.8562 23.569C22.8686 23.711 22.875 23.8548 22.875 24C22.875 26.6924 20.6924 28.875 18 28.875C15.3076 28.875 13.125 26.6924 13.125 24C13.125 21.3076 15.3076 19.125 18 19.125C18.1452 19.125 18.289 19.1314 18.431 19.1438ZM19.875 18.375C19.875 16.3039 21.5539 14.625 23.625 14.625C25.6961 14.625 27.375 16.3039 27.375 18.375C27.375 20.4461 25.6961 22.125 23.625 22.125C23.1995 22.125 22.7919 22.0544 22.4126 21.9249C21.9297 20.8999 21.1001 20.0703 20.0751 19.5874C19.9456 19.2081 19.875 18.8005 19.875 18.375ZM18 20.625C16.136 20.625 14.625 22.136 14.625 24C14.625 25.864 16.136 27.375 18 27.375C19.864 27.375 21.375 25.864 21.375 24C21.375 22.136 19.864 20.625 18 20.625Z" fill="#AB30A3"/>
</svg>
