<svg width="16" height="17" viewBox="0 0 16 17" fill="none" xmlns="http://www.w3.org/2000/svg">
<path fill-rule="evenodd" clipRule="evenodd" d="M1.64592 5.3798C1.69236 5.33324 1.74754 5.2963 1.80828 5.27109C1.86903 5.24588 1.93415 5.23291 1.99992 5.23291C2.06568 5.23291 2.13081 5.24588 2.19155 5.27109C2.2523 5.2963 2.30747 5.33324 2.35392 5.3798L7.99992 11.0268L13.6459 5.3798C13.6924 5.33332 13.7476 5.29644 13.8083 5.27128C13.8691 5.24612 13.9342 5.23317 13.9999 5.23317C14.0657 5.23317 14.1308 5.24612 14.1915 5.27128C14.2522 5.29644 14.3074 5.33332 14.3539 5.3798C14.4004 5.42629 14.4373 5.48148 14.4624 5.54222C14.4876 5.60296 14.5005 5.66806 14.5005 5.7338C14.5005 5.79955 14.4876 5.86465 14.4624 5.92539C14.4373 5.98613 14.4004 6.04132 14.3539 6.0878L8.35392 12.0878C8.30747 12.1344 8.2523 12.1713 8.19155 12.1965C8.13081 12.2217 8.06568 12.2347 7.99992 12.2347C7.93415 12.2347 7.86903 12.2217 7.80828 12.1965C7.74754 12.1713 7.69236 12.1344 7.64592 12.0878L1.64592 6.0878C1.59935 6.04136 1.56241 5.98618 1.5372 5.92544C1.512 5.86469 1.49902 5.79957 1.49902 5.7338C1.49902 5.66804 1.512 5.60292 1.5372 5.54217C1.56241 5.48142 1.59935 5.42625 1.64592 5.3798Z" fill="#6B7280"/>
</svg>
